<svg xmlns="http://www.w3.org/2000/svg" width="761.271" height="695.336" viewBox="0 0 761.271 695.336">
  <g id="Group_6" data-name="Group 6" transform="translate(-1030 -1866.65)">
    <path id="Path_182" data-name="Path 182" d="M1610.362,1968.239s-92.836-15.856-122,41.461-75.061,133.315-75.061,133.315l85.513,412.727,68.2,33.921s78.221-33.921,121.8-33.921c118.754,0,223.42-40.122,223.42-40.122s71.63-220.715,63.72-372.605S1848.348,1992.2,1848.348,1992.2s38.062-8.914-75.537-23.96S1610.362,1968.239,1610.362,1968.239Z" transform="translate(-185.301 -94.901)" fill="#4939e8" opacity="0.1"/>
    <g id="undraw_traveling_t8y2" transform="translate(1030 1925)">
      <rect id="Rectangle_55" data-name="Rectangle 55" width="375.127" height="485.458" rx="41.859" transform="translate(331.812 22.615)" fill="#f2f2f2"/>
      <rect id="Rectangle_56" data-name="Rectangle 56" width="375.127" height="485.458" rx="41.859" transform="translate(313.832 0.549)" fill="none" stroke="#3f3d56" stroke-miterlimit="10" stroke-width="1.097"/>
      <rect id="Rectangle_57" data-name="Rectangle 57" width="333.446" height="384.982" transform="translate(333.038 50.787)" fill="none" stroke="#3f3d56" stroke-miterlimit="10" stroke-width="1.097"/>
      <circle id="Ellipse_11" data-name="Ellipse 11" cx="8.173" cy="8.173" r="8.173" transform="translate(493.223 17.303)" fill="none" stroke="#3f3d56" stroke-miterlimit="10" stroke-width="1.097"/>
      <circle id="Ellipse_12" data-name="Ellipse 12" cx="17.98" cy="17.98" r="17.98" transform="translate(483.415 442.692)" fill="none" stroke="#3f3d56" stroke-miterlimit="10" stroke-width="1.097"/>
      <path id="Path_162" data-name="Path 162" d="M824.619,191a54.765,54.765,0,0,0-54.765,54.765c0,30.246,57.373,141.8,57.373,141.8s52.157-111.556,52.157-141.8A54.765,54.765,0,0,0,824.619,191Zm0,91.275a28.686,28.686,0,1,1,28.686-28.686,28.686,28.686,0,0,1-28.686,28.686Z" transform="translate(-333.448 -98.043)" fill="#6c63ff"/>
      <ellipse id="Ellipse_13" data-name="Ellipse 13" cx="54.757" cy="17.98" rx="54.757" ry="17.98" transform="translate(436.422 309.477)" fill="#6c63ff"/>
      <path id="Path_163" data-name="Path 163" d="M574.947,171.672a18.782,18.782,0,0,0-16.19,11.32c-4.048,9.786,1.164,21.281,8.989,28.417s17.877,11.215,27.009,16.576c12.267,7.2,23.29,17.2,29.427,30.03s6.791,28.727-.424,40.986c-6.7,11.378-18.873,18.188-30.486,24.469" transform="translate(-279.193 -93.109)" fill="none" stroke="#3f3d56" stroke-miterlimit="10" stroke-width="1.097"/>
      <ellipse id="Ellipse_14" data-name="Ellipse 14" cx="14.302" cy="6.947" rx="14.302" ry="6.947" transform="translate(291.765 72.469)" fill="#57b894"/>
      <ellipse id="Ellipse_15" data-name="Ellipse 15" cx="14.302" cy="6.947" rx="14.302" ry="6.947" transform="translate(303.207 118.236)" fill="#57b894"/>
      <ellipse id="Ellipse_16" data-name="Ellipse 16" cx="14.302" cy="6.947" rx="14.302" ry="6.947" transform="translate(277.055 125.591)" fill="#57b894"/>
      <ellipse id="Ellipse_17" data-name="Ellipse 17" cx="14.302" cy="6.947" rx="14.302" ry="6.947" transform="translate(317.918 164.003)" fill="#57b894"/>
      <ellipse id="Ellipse_18" data-name="Ellipse 18" cx="14.302" cy="6.947" rx="14.302" ry="6.947" transform="translate(346.523 164.003)" fill="#57b894"/>
      <line id="Line_2" data-name="Line 2" x2="292.999" transform="translate(38.813 636.437)" fill="none" stroke="#3f3d56" stroke-miterlimit="10" stroke-width="1.097"/>
      <path id="Path_164" data-name="Path 164" d="M215.9,730.686a17.49,17.49,0,0,0-15.076,10.541c-3.77,9.112,1.084,19.816,8.371,26.461s16.647,10.443,25.151,15.436c11.423,6.706,21.687,16.014,27.4,27.963s6.323,26.75-.395,38.166c-6.236,10.6-17.574,16.937-28.388,22.785" transform="translate(-187.831 -235.834)" fill="none" stroke="#3f3d56" stroke-miterlimit="10" stroke-width="1.097"/>
      <ellipse id="Ellipse_19" data-name="Ellipse 19" cx="13.318" cy="6.469" rx="13.318" ry="6.469" transform="translate(24.353 489.177)" fill="#57b894"/>
      <ellipse id="Ellipse_20" data-name="Ellipse 20" cx="13.318" cy="6.469" rx="13.318" ry="6.469" transform="translate(35.008 531.795)" fill="#57b894"/>
      <ellipse id="Ellipse_21" data-name="Ellipse 21" cx="13.318" cy="6.469" rx="13.318" ry="6.469" transform="translate(10.655 538.644)" fill="#57b894"/>
      <ellipse id="Ellipse_22" data-name="Ellipse 22" cx="13.318" cy="6.469" rx="13.318" ry="6.469" transform="translate(48.706 574.413)" fill="#57b894"/>
      <ellipse id="Ellipse_23" data-name="Ellipse 23" cx="13.318" cy="6.469" rx="13.318" ry="6.469" transform="translate(75.343 574.413)" fill="#57b894"/>
      <path id="Path_165" data-name="Path 165" d="M250.795,765.782a14.284,14.284,0,0,1,12.312,8.609c3.079,7.442-.885,16.183-6.836,21.61s-13.595,8.529-20.54,12.606c-9.329,5.476-17.711,13.078-22.379,22.837s-5.164,21.846.323,31.169c5.092,8.653,14.352,13.832,23.184,18.608" transform="translate(-190.434 -244.794)" fill="none" stroke="#3f3d56" stroke-miterlimit="10" stroke-width="1.097"/>
      <ellipse id="Ellipse_24" data-name="Ellipse 24" cx="10.876" cy="5.283" rx="10.876" ry="5.283" transform="translate(41.641 516.353)" fill="#57b894"/>
      <ellipse id="Ellipse_25" data-name="Ellipse 25" cx="10.876" cy="5.283" rx="10.876" ry="5.283" transform="translate(32.94 551.158)" fill="#57b894"/>
      <ellipse id="Ellipse_26" data-name="Ellipse 26" cx="10.876" cy="5.283" rx="10.876" ry="5.283" transform="translate(52.829 556.752)" fill="#57b894"/>
      <ellipse id="Ellipse_27" data-name="Ellipse 27" cx="10.876" cy="5.283" rx="10.876" ry="5.283" transform="translate(21.753 585.963)" fill="#57b894"/>
      <ellipse id="Ellipse_28" data-name="Ellipse 28" cx="10.876" cy="5.283" rx="10.876" ry="5.283" transform="translate(0 585.963)" fill="#57b894"/>
      <path id="Path_166" data-name="Path 166" d="M324.786,874.835s7.61,3.805,12.938,4.566,8.324-4.627,7.206-6.5,3.449-.35,6.493,6.5c0,0,12.938,15.221,20.548,15.982s7.67,11.064,3.805,11.416c-4.186.38-11.416,3.044-20.548,0s-17.5-11.416-21.309-11.416-16.743-6.088-12.938-9.132S324.786,874.835,324.786,874.835Z" transform="translate(-218.667 -271.955)" fill="#3f3d56"/>
      <path id="Path_167" data-name="Path 167" d="M426.482,895.33a42.267,42.267,0,0,0,11.612-.713c5.229-1.271,6.011-7.386,4.279-8.71s3.072-1.6,8.441,3.625c0,0,17.663,9.331,25.012,7.213s11.229,7.427,7.771,9.188a44.09,44.09,0,0,1-19.063,5.379c-9.61.563-20.508-1.854-24.041-.442s-17.807.561-15.4-3.678S426.482,895.33,426.482,895.33Z" transform="translate(-245.355 -275.256)" fill="#3f3d56"/>
      <circle id="Ellipse_29" data-name="Ellipse 29" cx="29.68" cy="29.68" r="29.68" transform="translate(138.509 197.7)" fill="#ffc1c7"/>
      <path id="Path_168" data-name="Path 168" d="M376.015,386.887s4.566,31.964-6.088,36.53,54.034,3.044,54.034,3.044-9.132-28.919-6.849-36.53S376.015,386.887,376.015,386.887Z" transform="translate(-231.038 -147.71)" fill="#ffc1c7"/>
      <path id="Path_169" data-name="Path 169" d="M354.287,629.744s-2.283,57.839-4.566,63.927-4.566,47.184-4.566,47.184l-19.787,74.581,18.265,6.088s25.114-44.141,28.158-49.467,27.4-90.563,27.4-90.563S396.9,734.006,396.9,751.51s4.566,81.431,4.566,81.431l14.46-1.522,19.026-80.67s27.4-108.829,9.132-121.005S354.287,629.744,354.287,629.744Z" transform="translate(-219.964 -208.68)" fill="#2f2e41"/>
      <path id="Path_170" data-name="Path 170" d="M509.146,654.822s.761,44.14-8.371,37.291,0-41.1,0-41.1Z" transform="translate(-263.712 -215.493)" fill="#ffc1c7"/>
      <path id="Path_171" data-name="Path 171" d="M339.5,634.382s.761,44.14-8.371,37.291,0-41.1,0-41.1Z" transform="translate(-220.399 -210.274)" fill="#ffc1c7"/>
      <path id="Path_172" data-name="Path 172" d="M449.29,457.688s-15.221-17.5-28.158-15.221-83.714,1.522-83.714,1.522-23.592,29.68-17.5,35.769,25.875,114.155,25.875,114.155,52.511-6.849,70.776-6.849,25.875-3.044,25.875-3.044-24.353-48.706-12.938-70.776,28.158-45.663,28.158-45.663Z" transform="translate(-218.315 -162.195)" fill="#6c63ff"/>
      <path id="Path_173" data-name="Path 173" d="M480.82,470.13l12.938,4.566s7.61,26.636,7.61,47.945.761,31.964,3.805,39.574,12.938,43.379,7.61,50.989a50.751,50.751,0,0,1-10.655,11.416l-17.5-1.522s-.761-25.114-5.327-27.4-10.655-16.743-10.655-16.743-14.46-46.423-5.327-61.644S480.82,470.13,480.82,470.13Z" transform="translate(-254.412 -169.31)" fill="#6c63ff"/>
      <path id="Path_174" data-name="Path 174" d="M390.824,496.966s7.61-33.486-6.849-31.964-34.247,2.283-39.574,2.283-35.769-3.805-40.335,15.982-10.655,44.14,2.283,59.361c0,0,4.566,66.971,22.07,71.537s63.927,9.893,80.67-12.177,9.893-46.423,9.893-46.423h-7.611Z" transform="translate(-213.122 -167.988)" fill="#3f3d56"/>
      <path id="Path_175" data-name="Path 175" d="M272.352,508.226l6.088-41.1L275.4,509.748Z" transform="translate(-69.535 -119.125)" fill="#3f3d56"/>
      <path id="Path_176" data-name="Path 176" d="M319.236,576.414s12.938,6.088,39.574,2.283v11.416l-39.574-3.044Z" transform="translate(-218.398 -196.445)" opacity="0.1"/>
      <path id="Path_177" data-name="Path 177" d="M228.918,394.5l19.787-10.655L231.962,398.3Z" transform="translate(-58.446 -97.86)" fill="#3f3d56"/>
      <path id="Path_178" data-name="Path 178" d="M435.33,440.916s15.221,5.327,15.221,0-13.7-9.893-22.07-12.938-47.945-7.61-54.034-9.893S339.44,412,337.157,421.129s-3.044,28.158,8.371,30.441,41.1-3.805,56.317-2.283S435.33,440.916,435.33,440.916Z" transform="translate(-222.621 -155.316)" fill="#6c63ff"/>
      <path id="Path_179" data-name="Path 179" d="M435.33,440.916s15.221,5.327,15.221,0-13.7-9.893-22.07-12.938-47.945-7.61-54.034-9.893S339.44,412,337.157,421.129s-3.044,28.158,8.371,30.441,41.1-3.805,56.317-2.283S435.33,440.916,435.33,440.916Z" transform="translate(-222.621 -155.316)" opacity="0.1"/>
      <path id="Path_180" data-name="Path 180" d="M143.074,402.6l5.173-10.865.916,13.148Z" transform="translate(-36.529 -99.875)" fill="#3f3d56"/>
      <ellipse id="Ellipse_30" data-name="Ellipse 30" cx="27.787" cy="32.282" rx="27.787" ry="32.282" transform="translate(135.258 193.451)" fill="#2f2e41"/>
      <ellipse id="Ellipse_31" data-name="Ellipse 31" cx="27.787" cy="17.571" rx="27.787" ry="17.571" transform="translate(140.162 190.999)" fill="#2f2e41"/>
      <ellipse id="Ellipse_32" data-name="Ellipse 32" cx="2.86" cy="4.904" rx="2.86" ry="4.904" transform="translate(186.746 230.228)" fill="#ffc1c7"/>
      <path id="Path_181" data-name="Path 181" d="M433.082,337.372c2.923-1.6,5.42-4.492,7.29-8.444a8.91,8.91,0,0,1,.146,2.673,10.12,10.12,0,0,0,3.48-1.049l-.261,2.849a29.38,29.38,0,0,0,5.744-4.6,22.617,22.617,0,0,1-2.012,12.143,24.282,24.282,0,0,1-5.616,6.859" transform="translate(-247.465 -133.226)" fill="#2f2e41"/>
    </g>
  </g>
</svg>
