<svg xmlns="http://www.w3.org/2000/svg" width="738.534" height="765.682" viewBox="0 0 738.534 765.682">
  <g id="Group_5" data-name="Group 5" transform="translate(-140 -1125)">
    <g id="undraw_content_creator_xeju" transform="translate(261.5 1260.5)">
      <rect id="Rectangle_33" data-name="Rectangle 33" width="130.61" height="106.033" transform="translate(30.344 68.614)" fill="#6c63ff"/>
      <rect id="Rectangle_34" data-name="Rectangle 34" width="361.634" height="11.235" transform="translate(30.344 206.948)" fill="#f2f2f2"/>
      <rect id="Rectangle_35" data-name="Rectangle 35" width="130.61" height="106.033" transform="translate(21.215 62.294)" fill="none" stroke="#3f3d56" stroke-miterlimit="10" stroke-width="1"/>
      <rect id="Rectangle_36" data-name="Rectangle 36" width="126.396" height="11.235" transform="translate(212.916 97.755)" fill="#f2f2f2"/>
      <rect id="Rectangle_37" data-name="Rectangle 37" width="179.062" height="11.235" transform="translate(212.916 127.95)" fill="#f2f2f2"/>
      <rect id="Rectangle_38" data-name="Rectangle 38" width="126.396" height="11.235" transform="translate(203.788 91.435)" fill="none" stroke="#3f3d56" stroke-miterlimit="10" stroke-width="1"/>
      <rect id="Rectangle_39" data-name="Rectangle 39" width="179.062" height="11.235" transform="translate(203.788 121.63)" fill="none" stroke="#3f3d56" stroke-miterlimit="10" stroke-width="1"/>
      <rect id="Rectangle_40" data-name="Rectangle 40" width="361.634" height="11.235" transform="translate(21.215 200.628)" fill="none" stroke="#3f3d56" stroke-miterlimit="10" stroke-width="1"/>
      <rect id="Rectangle_41" data-name="Rectangle 41" width="361.634" height="11.235" transform="translate(30.344 242.058)" fill="#f2f2f2"/>
      <rect id="Rectangle_42" data-name="Rectangle 42" width="361.634" height="11.235" transform="translate(21.215 235.738)" fill="none" stroke="#3f3d56" stroke-miterlimit="10" stroke-width="1"/>
      <rect id="Rectangle_43" data-name="Rectangle 43" width="361.634" height="11.235" transform="translate(30.344 277.168)" fill="#f2f2f2"/>
      <rect id="Rectangle_44" data-name="Rectangle 44" width="361.634" height="11.235" transform="translate(21.215 270.848)" fill="none" stroke="#3f3d56" stroke-miterlimit="10" stroke-width="1"/>
      <rect id="Rectangle_45" data-name="Rectangle 45" width="361.634" height="11.235" transform="translate(30.344 312.278)" fill="#f2f2f2"/>
      <rect id="Rectangle_46" data-name="Rectangle 46" width="361.634" height="11.235" transform="translate(21.215 305.958)" fill="none" stroke="#3f3d56" stroke-miterlimit="10" stroke-width="1"/>
      <rect id="Rectangle_47" data-name="Rectangle 47" width="361.634" height="11.235" transform="translate(30.344 347.388)" fill="#f2f2f2"/>
      <rect id="Rectangle_48" data-name="Rectangle 48" width="361.634" height="11.235" transform="translate(21.215 341.068)" fill="none" stroke="#3f3d56" stroke-miterlimit="10" stroke-width="1"/>
      <rect id="Rectangle_49" data-name="Rectangle 49" width="361.634" height="11.235" transform="translate(30.344 382.498)" fill="#f2f2f2"/>
      <rect id="Rectangle_50" data-name="Rectangle 50" width="361.634" height="11.235" transform="translate(21.215 376.178)" fill="none" stroke="#3f3d56" stroke-miterlimit="10" stroke-width="1"/>
      <rect id="Rectangle_51" data-name="Rectangle 51" width="412.193" height="455.027" transform="translate(0.5 0.5)" fill="none" stroke="#3f3d56" stroke-miterlimit="10" stroke-width="1"/>
      <path id="Path_137" data-name="Path 137" d="M968.359,666.094a14.313,14.313,0,1,0,1.906-27.449l.358,7.367-3.485-6.313a14.259,14.259,0,0,0-7.347,8.062,14.035,14.035,0,0,0-.823,3.872A14.31,14.31,0,0,0,968.359,666.094Z" transform="translate(-398.122 -259.547)" fill="#57b894"/>
      <path id="Path_138" data-name="Path 138" d="M995.772,746.318c-1.23-6.265,4.1-11.819,9.367-15.429s11.419-7.157,13.216-13.284c2.582-8.805-5.11-16.869-11.1-23.823A86.161,86.161,0,0,1,995.9,676.894a23.248,23.248,0,0,1-2.718-7.679c-.472-3.9.782-7.787,2.045-11.51q6.312-18.6,13.5-36.894" transform="translate(-408.29 -254.33)" fill="none" stroke="#3f3d56" stroke-miterlimit="10" stroke-width="1"/>
      <path id="Path_139" data-name="Path 139" d="M969.2,663.393a14.312,14.312,0,1,0,1.906-27.449l.358,7.367L967.978,637a14.258,14.258,0,0,0-7.347,8.061,14.032,14.032,0,0,0-.823,3.872,14.31,14.31,0,0,0,9.391,14.463Z" transform="translate(-398.372 -258.742)" fill="none" stroke="#3f3d56" stroke-miterlimit="10" stroke-width="1"/>
      <path id="Path_140" data-name="Path 140" d="M994.061,613.191a14.3,14.3,0,0,1,10.3-9.076l1.178,7,2.185-7.355a14.311,14.311,0,1,1-13.665,9.428Z" transform="translate(-408.328 -249.253)" fill="#57b894"/>
      <path id="Path_141" data-name="Path 141" d="M995.18,609.589a14.3,14.3,0,0,1,10.3-9.076l1.178,7,2.185-7.355a14.311,14.311,0,1,1-13.665,9.428Z" transform="translate(-408.661 -248.18)" fill="none" stroke="#3f3d56" stroke-miterlimit="10" stroke-width="1"/>
      <path id="Path_142" data-name="Path 142" d="M1005.7,713.153a14.311,14.311,0,0,0,12.666-25.46l-1.679,5.652-1.19-7.086a.238.238,0,0,0-.036-.014,14.312,14.312,0,0,0-9.761,26.907Z" transform="translate(-409.24 -273.559)" fill="#57b894"/>
      <path id="Path_143" data-name="Path 143" d="M1006.669,709.506a14.311,14.311,0,0,0,12.666-25.46l-1.679,5.652-1.19-7.086a.247.247,0,0,0-.036-.014,14.312,14.312,0,1,0-9.761,26.907Z" transform="translate(-409.528 -272.473)" fill="none" stroke="#3f3d56" stroke-miterlimit="10" stroke-width="1"/>
      <path id="Path_144" data-name="Path 144" d="M988.384,751.662a14.3,14.3,0,1,0,2.758-11.208l6.377,9.6-8.713-5.094a14.178,14.178,0,0,0-.422,6.7Z" transform="translate(-406.827 -288.299)" fill="#57b894"/>
      <path id="Path_145" data-name="Path 145" d="M989.224,748.961a14.3,14.3,0,1,0,2.758-11.208l6.377,9.6-8.713-5.094A14.177,14.177,0,0,0,989.224,748.961Z" transform="translate(-407.078 -287.495)" fill="none" stroke="#3f3d56" stroke-miterlimit="10" stroke-width="1"/>
      <path id="Path_146" data-name="Path 146" d="M748.5,331.23s8.778,18.608,7.373,24.226a15.378,15.378,0,0,0,1.053,10.182l16.151-.7,15.1-14.4s-22.822-15.8-21.417-23.524S748.5,331.23,748.5,331.23Z" transform="translate(-335.456 -166.064)" fill="#a0616a"/>
      <path id="Path_147" data-name="Path 147" d="M803.82,376.12l7.022,43.537s0,39.323-2.107,40.026-11.235,0-11.235,0V415.443l2.809-38.621Z" transform="translate(-350.048 -181.461)" fill="#6c63ff"/>
      <path id="Path_148" data-name="Path 148" d="M803.82,376.12l7.022,43.537s0,39.323-2.107,40.026-11.235,0-11.235,0V415.443l2.809-38.621Z" transform="translate(-350.048 -181.461)" opacity="0.1"/>
      <path id="Path_149" data-name="Path 149" d="M706,635.044l5.618,21.768,8.426-6.32,7.724-17.555L717.937,621Z" transform="translate(-210.096 -184.783)" fill="#a0616a"/>
      <path id="Path_150" data-name="Path 150" d="M885.252,733.12s-9.129,7.022-9.129,14.044c0,0-4.915,7.724-10.533,7.022v14.746s-17.555,9.129-4.213,11.235,23.173-14.746,23.173-14.746,12.64-20.364,10.533-23.173S885.252,733.12,885.252,733.12Z" transform="translate(-367.58 -287.775)" fill="#3f3d56"/>
      <path id="Path_151" data-name="Path 151" d="M798.408,490.312s13.394,14.554,7.074,37.024c0,0-7.022,50.559,15.448,69.518s37.217,60.389,37.217,60.389l-16.853,15.448s-18.257-41.43-37.217-57.581S783.011,580.7,783.011,580.7V516.8L779.5,490.12Z" transform="translate(-344.688 -215.41)" fill="#3f3d56"/>
      <path id="Path_152" data-name="Path 152" d="M798.408,490.312s13.394,14.554,7.074,37.024c0,0-7.022,50.559,15.448,69.518s37.217,60.389,37.217,60.389l-16.853,15.448s-18.257-41.43-37.217-57.581S783.011,580.7,783.011,580.7V516.8L779.5,490.12Z" transform="translate(-344.688 -215.41)" opacity="0.1"/>
      <path id="Path_153" data-name="Path 153" d="M618.022,664,611,671.724l2.809,6.32,8.426,2.809,14.746-5.618-2.107-8.426Z" transform="translate(-181.805 -197.589)" fill="#a0616a"/>
      <path id="Path_154" data-name="Path 154" d="M786.094,772.8s-16.853,8.426-21.066,4.915a11.259,11.259,0,0,1-4.2-8.018s-8.438,1-14.056,4.507-9.831,7.724-16.853,7.724-4.213,8.426,9.129,9.129,47.048-.7,47.048-4.213Z" transform="translate(-328.811 -298.669)" fill="#3f3d56"/>
      <path id="Path_155" data-name="Path 155" d="M742.41,501.333s-9.129,40.728,7.022,87.073c0,0,7.724,25.981,11.235,33.706s7.022,62.5,5.618,64.6c0,0,11.235,9.129,21.066,2.809,0,0-.7-32.3.7-35.11s2.809-27.386-5.618-47.75-1.4-69.518-1.4-69.518,16.853-25.279,4.213-40.026Z" transform="translate(-332.877 -217.495)" fill="#3f3d56"/>
      <circle id="Ellipse_10" data-name="Ellipse 10" cx="19.662" cy="19.662" r="19.662" transform="translate(400.404 130.759)" fill="#a0616a"/>
      <path id="Path_156" data-name="Path 156" d="M785.518,451.748s-5.618,8.426-9.831,4.213c-2.97-2.97-21.986,3.483-32.954,7.549-4.592,1.7-7.773,2.984-7.773,2.984s-.3-9.733-1.194-22.056c-1.025-14.142-2.823-31.711-5.828-41.844-5.618-18.959,8.426-26.684,8.426-26.684S748.3,361.866,747.6,359.76s31.6-12.64,31.6-12.64c3.511.7,6.32,32.3,6.32,32.3s-6.32,25.279-9.831,40.728S785.518,451.748,785.518,451.748Z" transform="translate(-328.938 -172.825)" fill="#6c63ff"/>
      <path id="Path_157" data-name="Path 157" d="M710.989,497.12s-15.448,15.448-23.173,19.662-11.937,18.257-5.618,21.066S702.562,522.4,702.562,522.4l20.364-16.853Z" transform="translate(-314.798 -217.495)" fill="#a0616a"/>
      <path id="Path_158" data-name="Path 158" d="M727.637,288.484c-1.8.16-2.823,2.422-2.243,4.13a6.072,6.072,0,0,0,3.948,3.422c1.7.6,3.521.8,5.225,1.393a15.376,15.376,0,0,1,4.644,2.7c4.854,3.975,7.728,10.032,8.642,16.238a44.465,44.465,0,0,1-1.722,18.6c-.914,3.2-2.406,6.7-5.53,7.833a62.128,62.128,0,0,0,9.973-3.382c2.362-1.112,4.578-2.52,6.965-3.577a43.672,43.672,0,0,1,11.028-2.892c2.658-.414,5.468-.73,7.965.273a16.011,16.011,0,0,1,4.174,2.815l8.03,6.747q.21-4.4.277-8.805a19.587,19.587,0,0,0-.911-7.552c-.929-2.343-2.692-4.253-3.872-6.48-2.92-5.51-1.969-12.148-1.914-18.384.056-6.456-.983-13.036-3.973-18.759s-8.093-10.515-14.318-12.229c-8.391-2.31-17.236,1.128-24.948,5.159A22.627,22.627,0,0,0,734.045,279a24.451,24.451,0,0,0-4.09,5.576l-3.818,6.4" transform="translate(-328.527 -149.807)" fill="#3f3d56"/>
      <path id="Path_159" data-name="Path 159" d="M780.828,392.1s-13.342,50.559-14.746,54.07c-1.011,2.521-12.906,15.933-20.315,23-4.592,1.7-7.774,2.984-7.774,2.984s-.3-9.733-1.194-22.056c5.716-6.341,11.727-12.352,11.727-12.352s6.32-38.621,5.618-53.367,14.044-18.257,14.044-18.257C785.041,368.227,780.828,392.1,780.828,392.1Z" transform="translate(-331.972 -178.483)" opacity="0.1"/>
      <path id="Path_160" data-name="Path 160" d="M760.874,362.12s-14.746,3.511-14.044,18.257-5.618,53.367-5.618,53.367-23.875,23.875-21.768,26.684,11.132,8.331,13.29,9.081,24.629-23.827,26.033-27.338,14.746-54.07,14.746-54.07S777.727,364.227,760.874,362.12Z" transform="translate(-326.764 -177.292)" fill="#6c63ff"/>
      <line id="Line_1" data-name="Line 1" x2="259.113" transform="translate(357.921 492.042)" fill="none" stroke="#3f3d56" stroke-miterlimit="10" stroke-width="1"/>
    </g>
    <path id="Path_161" data-name="Path 161" d="M1487.8,1939.58s-97.475-100.305-126.639-42.988,9.983,272.257,9.983,272.257l127.671,386.892,40.05,88.842s106.374-88.842,149.958-88.842c118.754,0,223.42-40.122,223.42-40.122s120.03-322.41,112.12-474.3-98.143-124.666-98.143-124.666-39.809,66.631-153.408,51.586S1487.8,1939.58,1487.8,1939.58Z" transform="translate(-1210.362 -753.901)" fill="#4939e8" opacity="0.1"/>
  </g>
</svg>
