<svg xmlns="http://www.w3.org/2000/svg" width="244.875" height="235.478" viewBox="0 0 244.875 235.478">
  <path id="Path_129" data-name="Path 129" d="M703.542,110.05h-.587a66.983,66.983,0,0,0-55.923,30.612,66.983,66.983,0,0,0-55.923-30.612h-.587a66.566,66.566,0,0,0-65.931,66.526c0,21.779,9.538,52.681,28.138,78.109,35.436,48.452,94.3,90.842,94.3,90.842s58.867-42.383,94.3-90.842c18.607-25.428,28.138-56.33,28.138-78.109a66.566,66.566,0,0,0-65.923-66.526Zm-8.4,148.363a13.2,13.2,0,0,1-12.272-8.473H668.9a4.417,4.417,0,0,1-4.158-3.007L660.446,234l-13.579,47.449a4.393,4.393,0,0,1-4.213,3.172h-.274a4.338,4.338,0,0,1-4.072-3.634l-13.994-84.17-10.228,49.807a4.362,4.362,0,0,1-4.237,3.313h-19.68a4.378,4.378,0,1,1,0-8.747H606.4l14.488-66.965a4.393,4.393,0,0,1,8.614.36l7.937,47.68,6.355,38.182L655.967,218a4.307,4.307,0,0,1,4.1-3.132h.086a4.37,4.37,0,0,1,4.151,3.007l7.761,23.345h10.635a13.125,13.125,0,1,1,12.467,17.229Z" transform="translate(-524.59 -110.05)" fill="#6c63ff"/>
</svg>
