<svg xmlns="http://www.w3.org/2000/svg" xmlns:xlink="http://www.w3.org/1999/xlink" width="865.485" height="612.988" viewBox="0 0 865.485 612.988">
  <defs>
    <linearGradient id="linear-gradient" x1="0.5" y1="1" x2="0.5" gradientUnits="objectBoundingBox">
      <stop offset="0" stop-color="gray" stop-opacity="0.251"/>
      <stop offset="0.54" stop-color="gray" stop-opacity="0.122"/>
      <stop offset="1" stop-color="gray" stop-opacity="0.102"/>
    </linearGradient>
    <linearGradient id="linear-gradient-2" x1="0.5" y1="1" x2="0.5" y2="0" xlink:href="#linear-gradient"/>
  </defs>
  <g id="undraw_medicine_b1ol" transform="translate(0.005 0.006)">
    <ellipse id="Ellipse_1" data-name="Ellipse 1" cx="76.308" cy="12.256" rx="76.308" ry="12.256" transform="translate(211.501 588.125)" fill="#6c63ff" opacity="0.1"/>
    <ellipse id="Ellipse_2" data-name="Ellipse 2" cx="95.22" cy="12.256" rx="95.22" ry="12.256" transform="translate(607.386 588.47)" fill="#6c63ff" opacity="0.1"/>
    <path id="Path_1" data-name="Path 1" d="M60.629,396.83h79.479V505.16H66.448c-.2,1.112-.384,2.232-.587,3.352h74.248v87.365c-.133-.039-.251-.086-.376-.133-2.1-.83-4.182-1.707-6.265-2.647l-1.331-.6q-3.132-1.48-6.265-3.133c-.728-.384-1.457-.783-2.177-1.19a130.328,130.328,0,0,1-31.231-24.4c-.266-.258-.517-.533-.783-.783-1.269-1.378-2.514-2.772-3.72-4.2l-1.331-1.566c-1.425-1.746-2.8-3.54-4.143-5.357-.2-.266-.384-.533-.587-.783a116.592,116.592,0,0,1-13.47-24.355c-.11-.258-.2-.54-.305-.783q-1.613-4.151-2.858-8.379c-.36-1.183-.7-2.349-1-3.579-.11-.36-.2-.713-.29-1.065C59.525,495.558,59,477.523,59,459.613v-6.265c0-7.244.086-14.535.211-21.818,0-1.887.078-3.767.117-5.662q.164-7.213.47-14.425c.047-1.339.11-2.67.18-4a22.666,22.666,0,0,1,.117-2.3C60.284,402.351,60.441,399.587,60.629,396.83Z" transform="translate(-49.686 -131.979)" fill="#6c63ff" opacity="0.1"/>
    <g id="Group_4" data-name="Group 4">
      <path id="Path_2" data-name="Path 2" d="M150.5,227.551H106.9a330.485,330.485,0,0,1,23.188-31.92c6.476-7.956,13.313-15.709,20.408-23.18Z" transform="translate(-60.075 -83.316)" fill="#6c63ff" opacity="0.1"/>
      <path id="Path_3" data-name="Path 3" d="M140.629,247.09V361H61.4c0-.329.055-.666.078-.995.07-.9.141-1.8.219-2.694.086-1.049.18-2.107.282-3.132s.211-2.279.329-3.414.227-2.287.36-3.422.251-2.271.392-3.4.266-2.271.415-3.4c.117-.94.243-1.872.368-2.811.18-1.323.368-2.655.572-3.97a3.662,3.662,0,0,1,.086-.587,270.884,270.884,0,0,1,5.834-28.6A211.508,211.508,0,0,1,80.164,275.6a217.518,217.518,0,0,1,14.785-28.474Z" transform="translate(-50.207 -99.504)" fill="#6c63ff" opacity="0.1"/>
      <path id="Path_4" data-name="Path 4" d="M186.8,323.473V431.811H356.558V323.473Zm0,111.681V528.19c.971.2,1.934.4,2.89.564,1.3.251,2.592.478,3.916.674.251.039.509.078.783.1.517.086,1.049.157,1.566.227,1.308.18,2.608.329,3.916.446.619.063,1.245.117,1.872.164l1.511.117h0c.822.063,1.637.11,2.443.133.5,0,1,.047,1.519.063H212.8c.673,0,1.347,0,2.013-.063h.047a10.551,10.551,0,0,0,1.4-.063,3.273,3.273,0,0,0,.392,0,8.1,8.1,0,0,0,1.159-.055h.274l2.623-.2c.861-.078,1.731-.18,2.608-.274l1.786-.211a156.2,156.2,0,0,0,21.5-4.573c15.835-4.417,31.325-10.6,47.152-15.122,20.463-5.834,43.072-8.7,62.846-1.566V435.155Zm169.758-232.29V58.636A218.234,218.234,0,0,0,301.4,65.105c-42.986,10.8-81.555,34.223-114.6,64.138v73.614h8.52V206.2H186.8V320.129H356.558V206.208H230.3v-3.344ZM574.6,154.146c-10.635-.376-21.207-3.743-30.769-8.943-18.286-9.946-32.891-25.3-49.212-38.263C460.713,79.945,418.66,63.656,375.517,59.615V202.864H617.855l.6-.634Zm22.076-3.916,23.408,25.686V143.5c-7.839.971-14.707,3.281-23.376,6.7Zm23.408,401.061V435.155H570.21c-.133-.493-.266-.995-.423-1.5.149.5.274,1,.415,1.5H375.549v83.99c1.848,1.37,3.673,2.811,5.482,4.276h0c1.95,1.566,3.876,3.219,5.811,4.84l1.95,1.613c.932.783,1.872,1.566,2.819,2.3q2.819,2.287,5.693,4.511c.948.783,1.919,1.488,2.882,2.224a392.519,392.519,0,0,0,48.264,31.568q5.662,3.132,11.426,6.116c2.561,1.308,5.137,2.608,7.722,3.869q5.827,2.843,11.747,5.482h0A431.375,431.375,0,0,0,593.68,619.252q13.149,1.942,26.4,3.054V551.284h.783ZM375.549,206.208V320.129h244.57V206.208Zm0,117.265V431.811h244.57V323.473ZM639.1,143.355V179.52l29.876-32.782q-14.848-2.4-29.876-3.422Zm0,180.158v108.3H876.975V323.473Zm237,236.378.838-124.736H639.1v188.4A426.562,426.562,0,0,0,685.071,623h.266q10.964-.689,21.826-2h.164a401.933,401.933,0,0,0,112.143-29.923M922.843,341.313c-.893-2.107-1.825-4.2-2.772-6.265-1.77-3.916-3.642-7.722-5.568-11.528h-18.56v108.29h46.925c-.024-30.667-7.784-61.992-20-90.537Zm-26.9,93.881V542.482a153.693,153.693,0,0,0,32.429-43.737c9.672-19.954,14.1-41.56,14.456-63.566Zm0-143.249v28.192h16.822a305.437,305.437,0,0,0-16.8-28.232ZM734.619,164.609c-1.237-.47-2.475-.948-3.72-1.41a339.579,339.579,0,0,0-40.182-12.076L645,201.3h0l-.877.932.587.642H807.426a348.028,348.028,0,0,0-72.784-38.3ZM812.2,206.248H642.437L639.1,209.3V320.129H877.007V266.446a338.936,338.936,0,0,0-64.788-60.238Z" transform="translate(-77.403 -58.63)" fill="#6c63ff" opacity="0.1"/>
    </g>
    <path id="Path_5" data-name="Path 5" d="M140.629,320.46v56.455H61.4c0-.329.055-.666.078-.995.07-.9.141-1.8.219-2.694.086-1.049.18-2.107.282-3.132s.211-2.279.329-3.414.227-2.287.36-3.422.251-2.271.392-3.4.266-2.271.415-3.4c.117-.94.243-1.872.368-2.811.18-1.323.368-2.655.572-3.97a3.663,3.663,0,0,1,.086-.587,270.883,270.883,0,0,1,5.834-28.6Z" transform="translate(-50.207 -115.416)" fill="#6c63ff" opacity="0.1"/>
    <path id="Path_6" data-name="Path 6" d="M60.629,396.83h79.479V505.16H66.448c-.2,1.112-.384,2.232-.587,3.352h74.248v87.365c-.133-.039-.251-.086-.376-.133-2.1-.83-4.182-1.707-6.265-2.647l-1.331-.6q-3.132-1.48-6.265-3.133c-.728-.384-1.457-.783-2.177-1.19a130.328,130.328,0,0,1-31.231-24.4c-.266-.258-.517-.533-.783-.783-1.269-1.378-2.514-2.772-3.72-4.2l-1.331-1.566c-1.425-1.746-2.8-3.54-4.143-5.357-.2-.266-.384-.533-.587-.783a116.592,116.592,0,0,1-13.47-24.355c-.11-.258-.2-.54-.305-.783q-1.613-4.151-2.858-8.379c-.36-1.183-.7-2.349-1-3.579-.11-.36-.2-.713-.29-1.065C59.525,495.558,59,477.523,59,459.613v-6.265c0-7.244.086-14.535.211-21.818,0-1.887.078-3.767.117-5.662q.164-7.213.47-14.425c.047-1.339.11-2.67.18-4a22.666,22.666,0,0,1,.117-2.3C60.284,402.351,60.441,399.587,60.629,396.83Z" transform="translate(-49.686 -131.979)" fill="#6c63ff" opacity="0.1"/>
    <path id="Path_7" data-name="Path 7" d="M199.32,200.128v97.609H139.56V200.128h8.52V167.08h34.974v33.048Z" transform="translate(-30.163 -36.237)" fill="#6c63ff" opacity="0.1"/>
    <rect id="Rectangle_1" data-name="Rectangle 1" width="59.752" height="108.33" transform="translate(109.405 264.843)" fill="#6c63ff" opacity="0.1"/>
    <path id="Path_8" data-name="Path 8" d="M186.8,539.44h59.76V629.5a155.937,155.937,0,0,1-21.5,4.566l-1.786.219c-.877.1-1.746.188-2.608.274s-1.754.149-2.623.2h-.274c-.376,0-.783.047-1.151.055h-.4c-.47,0-.94.047-1.41.063h0c-.666.039-1.331.047-2.013.055h-5.544l-1.511-.055c-.783,0-1.629-.086-2.443-.141h0l-1.5-.11-1.872-.172c-1.316-.117-2.623-.266-3.916-.446l-1.566-.219-.783-.11c-1.308-.2-2.6-.423-3.916-.673-.963-.164-1.919-.368-2.89-.564Z" transform="translate(-77.403 -162.907)" fill="#6c63ff" opacity="0.1"/>
    <rect id="Rectangle_2" data-name="Rectangle 2" width="49.274" height="109.128" transform="translate(493.441 152.363)" fill="#6c63ff" opacity="0.1"/>
    <path id="Path_9" data-name="Path 9" d="M625.158,338.19V446.527H380.58V399.8H510.853v27.566h65.023V338.19Z" transform="translate(-82.434 -73.347)" fill="#6c63ff" opacity="0.1"/>
    <path id="Path_10" data-name="Path 10" d="M673.173,655.179h-.783v71.069Q659.155,725.127,646,723.2a431.394,431.394,0,0,1-114.383-33.377q-15.764-7.095-30.887-15.49a394.116,394.116,0,0,1-48.272-31.568q-5.764-4.417-11.379-9.037c-2.592-2.138-5.169-4.331-7.776-6.461-1.809-1.464-3.634-2.905-5.482-4.284V539.026H622.466c-.133-.5-.266-1-.407-1.5.149.493.29.995.423,1.5H672.39V655.132C672.656,655.14,672.914,655.163,673.173,655.179Z" transform="translate(-129.674 -162.493)" fill="#6c63ff" opacity="0.1"/>
    <path id="Path_11" data-name="Path 11" d="M895.328,231.817H863.22V221.84h14.394V192.12q1.872.681,3.728,1.4V221.84h13.987Z" transform="translate(-224.102 -87.582)" fill="#6c63ff" opacity="0.1"/>
    <path id="Path_12" data-name="Path 12" d="M951.245,361H793.617l.055.039L793.6,361H764.36V251.875h8.285v80.662h37.864V284.766h31.278V247.09H873.9V284.8h31.278v47.771h46.071Z" transform="translate(-202.662 -99.504)" fill="#6c63ff" opacity="0.1"/>
    <path id="Path_13" data-name="Path 13" d="M764.36,396.82V505.157H951.245V396.82Zm237.616,235.861.258-85.752H951.245V508.556H764.36V696.9a426.562,426.562,0,0,0,45.969-.548h.266q10.964-.689,21.826-2h.164a401.933,401.933,0,0,0,112.143-29.923" transform="translate(-202.662 -131.977)" fill="#6c63ff" opacity="0.1"/>
    <path id="Path_14" data-name="Path 14" d="M1095.659,539.44h43.6c-.384,22-4.8,43.6-14.464,63.558a153.742,153.742,0,0,1-32.421,43.737V577.821h3.289Z" transform="translate(-273.799 -162.907)" fill="#6c63ff" opacity="0.1"/>
    <path id="Path_15" data-name="Path 15" d="M1140.19,510.087h-43.62V419.55h23.6C1132.39,448.095,1140.151,479.42,1140.19,510.087Z" transform="translate(-274.71 -136.906)" fill="#6c63ff" opacity="0.1"/>
    <rect id="Rectangle_3" data-name="Rectangle 3" width="26.399" height="34.215" transform="translate(516.324 182.702)" fill="#6c63ff" opacity="0.1"/>
    <rect id="Rectangle_4" data-name="Rectangle 4" width="26.399" height="7.878" transform="translate(516.324 253.621)" fill="#6c63ff" opacity="0.1"/>
    <rect id="Rectangle_5" data-name="Rectangle 5" width="26.399" height="22.985" transform="translate(516.324 264.843)" fill="#6c63ff" opacity="0.1"/>
    <rect id="Rectangle_6" data-name="Rectangle 6" width="26.399" height="34.215" transform="translate(516.324 324.541)" fill="#6c63ff" opacity="0.1"/>
    <rect id="Rectangle_7" data-name="Rectangle 7" width="26.399" height="34.215" transform="translate(516.324 395.461)" fill="#6c63ff" opacity="0.1"/>
    <path id="Path_16" data-name="Path 16" d="M732.811,680.428a4.338,4.338,0,0,1,.783.047h-.783v7.949H706.42V654.17h26.391Z" transform="translate(-190.096 -187.79)" fill="#6c63ff" opacity="0.1"/>
    <path id="Path_17" data-name="Path 17" d="M732.811,744.71v26.43q-13.235-1.12-26.391-3.046V744.71Z" transform="translate(-190.096 -207.425)" fill="#6c63ff" opacity="0.1"/>
    <rect id="Rectangle_8" data-name="Rectangle 8" width="113.138" height="2.514" transform="translate(298.146 370.667)" fill="#6c63ff" opacity="0.1"/>
    <rect id="Rectangle_9" data-name="Rectangle 9" width="113.138" height="9.632" transform="translate(298.146 376.525)" fill="#6c63ff" opacity="0.1"/>
    <rect id="Rectangle_10" data-name="Rectangle 10" width="113.138" height="15.49" transform="translate(298.146 417.733)" fill="#6c63ff" opacity="0.1"/>
    <path id="Path_18" data-name="Path 18" d="M542.466,652.15v15.49H453.973q-5.764-4.4-11.387-9.037c-2.592-2.138-5.161-4.331-7.776-6.453Z" transform="translate(-131.19 -187.351)" fill="#6c63ff" opacity="0.1"/>
    <path id="Path_19" data-name="Path 19" d="M561.141,712.233v15.475H551.8q-15.749-7.1-30.879-15.5Z" transform="translate(-149.866 -200.377)" fill="#6c63ff" opacity="0.1"/>
    <rect id="Rectangle_11" data-name="Rectangle 11" width="22.272" height="22.272" transform="translate(607.675 275.345)" fill="#6c63ff" opacity="0.1"/>
    <rect id="Rectangle_12" data-name="Rectangle 12" width="22.272" height="22.272" transform="translate(125.443 171.573)" fill="#6c63ff" opacity="0.1"/>
    <rect id="Rectangle_13" data-name="Rectangle 13" width="22.272" height="22.272" transform="translate(125.443 223.307)" fill="#6c63ff" opacity="0.1"/>
    <rect id="Rectangle_14" data-name="Rectangle 14" width="22.272" height="22.272" transform="translate(125.443 275.04)" fill="#6c63ff" opacity="0.1"/>
    <rect id="Rectangle_15" data-name="Rectangle 15" width="22.272" height="22.272" transform="translate(125.443 326.765)" fill="#6c63ff" opacity="0.1"/>
    <rect id="Rectangle_16" data-name="Rectangle 16" width="22.272" height="22.272" transform="translate(125.443 378.498)" fill="#6c63ff" opacity="0.1"/>
    <rect id="Rectangle_17" data-name="Rectangle 17" width="22.272" height="22.272" transform="translate(125.443 430.231)" fill="#6c63ff" opacity="0.1"/>
    <rect id="Rectangle_18" data-name="Rectangle 18" width="22.272" height="22.272" transform="translate(692.699 275.345)" fill="#6c63ff" opacity="0.1"/>
    <rect id="Rectangle_19" data-name="Rectangle 19" width="22.272" height="22.272" transform="translate(607.675 330.281)" fill="#6c63ff" opacity="0.1"/>
    <rect id="Rectangle_20" data-name="Rectangle 20" width="22.272" height="22.272" transform="translate(692.699 330.281)" fill="#6c63ff" opacity="0.1"/>
    <rect id="Rectangle_21" data-name="Rectangle 21" width="22.272" height="22.272" transform="translate(607.675 385.21)" fill="#6c63ff" opacity="0.1"/>
    <rect id="Rectangle_22" data-name="Rectangle 22" width="22.272" height="22.272" transform="translate(692.699 385.21)" fill="#6c63ff" opacity="0.1"/>
    <rect id="Rectangle_23" data-name="Rectangle 23" width="22.272" height="22.272" transform="translate(607.675 440.146)" fill="#6c63ff" opacity="0.1"/>
    <rect id="Rectangle_24" data-name="Rectangle 24" width="22.272" height="22.272" transform="translate(692.699 440.146)" fill="#6c63ff" opacity="0.1"/>
    <rect id="Rectangle_25" data-name="Rectangle 25" width="22.272" height="22.272" transform="translate(607.675 495.082)" fill="#6c63ff" opacity="0.1"/>
    <rect id="Rectangle_26" data-name="Rectangle 26" width="22.272" height="22.272" transform="translate(692.699 495.082)" fill="#6c63ff" opacity="0.1"/>
    <path id="Path_20" data-name="Path 20" d="M775.83,716.692V702.33h22.264v12.319Z" transform="translate(-168.155 -152.32)" fill="#6c63ff" opacity="0.1"/>
    <path id="Path_21" data-name="Path 21" d="M65.24,357v12.741h76.221V357Zm7.6,11.943H66.618v-11.16h6.265Zm7.588,0H74.16v-11.16h6.265Zm7.573,0H81.733v-11.16H88Zm7.588,0H89.329v-11.16h6.265Zm7.581,0H96.9v-11.16h6.265Zm7.588,0H104.49v-11.16h6.265Zm7.588,0h-6.265v-11.16h6.265Zm7.581,0h-6.265v-11.16h6.265Zm7.581,0H127.24v-11.16H133.5Zm7.581,0h-6.265v-11.16h6.265Z" transform="translate(-51.04 -123.341)" fill="#6c63ff" opacity="0.1"/>
    <path id="Path_22" data-name="Path 22" d="M65.24,404.34v12.741h76.221V404.34Zm7.6,11.935H66.618V405.147h6.265Zm7.588,0H74.16V405.147h6.265Zm7.573,0H81.733V405.147H88Zm7.588,0H89.329V405.147h6.265Zm7.581,0H96.9V405.147h6.265Zm7.588,0H104.49V405.147h6.265Zm7.588,0h-6.265V405.147h6.265Zm7.581,0h-6.265V405.147h6.265Zm7.581,0H127.24V405.147H133.5Zm7.581,0h-6.265V405.147h6.265Z" transform="translate(-51.04 -133.607)" fill="#6c63ff" opacity="0.1"/>
    <path id="Path_23" data-name="Path 23" d="M65.24,451.7v12.765h76.221V451.7Zm7.6,11.935H66.618V452.5h6.265Zm7.588,0H74.16V452.5h6.265Zm7.573,0H81.733V452.5H88Zm7.588,0H89.329V452.5h6.265Zm7.581,0H96.9V452.5h6.265Zm7.588,0H104.49V452.5h6.265Zm7.588,0h-6.265V452.5h6.265Zm7.581,0h-6.265V452.5h6.265Zm7.581,0H127.24V452.5H133.5Zm7.581,0h-6.265V452.5h6.265Z" transform="translate(-51.04 -143.879)" fill="#6c63ff" opacity="0.1"/>
    <path id="Path_24" data-name="Path 24" d="M65.24,499.06v12.726h76.221V499.06Zm7.6,11.935H66.618V499.851h6.265Zm7.588,0H74.16V499.851h6.265Zm7.573,0H81.733V499.851H88Zm7.588,0H89.329V499.851h6.265Zm7.581,0H96.9V499.851h6.265Zm7.588,0H104.49V499.851h6.265Zm7.588,0h-6.265V499.851h6.265Zm7.581,0h-6.265V499.851h6.265Zm7.581,0H127.24V499.851H133.5Zm7.581,0h-6.265V499.851h6.265Z" transform="translate(-51.04 -154.15)" fill="#6c63ff" opacity="0.1"/>
    <path id="Path_25" data-name="Path 25" d="M65.66,546.41c.305,1.2.65,2.4,1.01,3.579v-2.78h6.265v11.136H69.583c.1.258.2.54.305.783h71.664V546.41Zm14.879,11.935H74.274V547.209h6.265Zm7.573,0H81.847V547.209h6.265Zm7.588,0H89.42V547.209h6.265Zm7.581,0H97.016V547.209h6.265Zm7.588,0H104.6V547.209h6.265Zm7.588,0h-6.265V547.209h6.265Zm7.581,0h-6.265V547.209h6.265Zm7.581,0h-6.265V547.209h6.265Zm7.581,0h-6.265V547.209H141.2Z" transform="translate(-51.131 -164.419)" fill="#6c63ff" opacity="0.1"/>
    <path id="Path_26" data-name="Path 26" d="M88.26,593.77c.2.251.384.532.587.783H92.99V599.9c.446.533.885,1.065,1.339,1.566v-6.946h6.265V605.7H98.057c.251.258.493.533.783.783h47.637V593.77Zm19.9,11.927h-6.265V594.569h6.265Zm7.588,0h-6.265V594.569h6.265Zm7.588,0h-6.265V594.569h6.265Zm7.581,0h-6.265V594.569h6.265Zm7.581,0h-6.265V594.569H138.5Zm7.581,0h-6.265V594.569h6.265Z" transform="translate(-56.032 -174.69)" fill="#6c63ff" opacity="0.1"/>
    <path id="Path_27" data-name="Path 27" d="M141.65,641.12c.713.407,1.441.783,2.177,1.19v-.392h6.265v3.524l1.331.619v-4.143h6.265v6.774a1.959,1.959,0,0,0,.376.141V641.12Z" transform="translate(-67.611 -184.959)" fill="#6c63ff" opacity="0.1"/>
    <path id="Path_28" data-name="Path 28" d="M670.727,360.069ZM622.487,591.2ZM572.155,473.6c.149.5.274,1,.415,1.5h0C572.445,474.6,572.312,474.1,572.155,473.6Zm98.572-113.553ZM197.72,242.78v3.344H232.7V242.78ZM622.487,591.2ZM572.155,473.6c.149.5.274,1,.415,1.5h0C572.445,474.6,572.312,474.1,572.155,473.6Zm98.572-113.553Zm-48.24,231.131ZM572.155,473.6c.149.5.274,1,.415,1.5h0C572.445,474.6,572.312,474.1,572.155,473.6Z" transform="translate(-79.771 -98.569)" fill="#6c63ff" opacity="0.1"/>
    <path id="Path_29" data-name="Path 29" d="M462.6,390.557s-3.086-.431-3.086-4.926-2.208-12.89-2.208-12.89h0c0-.039-1.911-14.621-4.55-16.939s-6.03-15.929-6.03-15.929-.579-7.385-1.762-8.975-2.78-5.482-5.137-11.034-12.185-9.4-12.185-9.4-17.769-10.306-22.8-13.666h0a7.724,7.724,0,0,1-1.277-.963c-.877-1.151-4.7-1.175-4.7-1.175a76.993,76.993,0,0,1-.908-8.043,6.122,6.122,0,0,0-.039-.846,27.1,27.1,0,0,0,11.911-14.738c.094-.3.172-.611.258-.908a2.545,2.545,0,0,0,1.527-1.378c.454-1.01.462-2.193,1.026-3.133.658-1.112,1.911-1.707,2.9-2.545,2.49-2.114,3.132-5.678,3.015-8.92-.078-2.623-.5-5.27-.337-7.878l.047-.658c.047-.392.1-.783.172-1.159.384-1.942,1.222-3.775,1.692-5.7a7.334,7.334,0,0,0-.579-5.756c-1.605-2.436-4.949-2.921-7.886-3.172-3.328-.282-6.3.086-8.434-2.678a30.065,30.065,0,0,0-3.352-4.049c-.439-.407-4.7-3.007-4.7-3.179A19.038,19.038,0,0,0,381.9,218.9c-2.208.642-4.292,1.692-6.531,2.216-4.832,1.143-10.392-.094-14.5,2.67-2.287,1.566-3.657,4.057-4.941,6.484q-1.566,3-3.18,5.991c-1.731,3.281-3.493,6.617-4.221,10.251a16.274,16.274,0,0,0-.282,2.4h0v1.276a4.211,4.211,0,0,0,.047.783c.047.243.039.321.063.486s.063.533.11.783.141.689.235,1.034c.039.149.094.29.141.431.078.266.172.525.274.783.055.133.11.274.172.407a7.33,7.33,0,0,0,.4.783c.063.11.11.211.172.313a10.393,10.393,0,0,0,.72,1.049c1.676,2.091,4.143,3.422,5.967,5.38v.877a26.806,26.806,0,0,0,12.2,21.888c0,.3.039.6.055.9a44.809,44.809,0,0,1-.086,6.978,3.289,3.289,0,0,0-2.6-1.159,3.75,3.75,0,0,0-1,.086l-.07-.055h0v.07c-1.723.423-3.845,2.216-5.873,7.314,0,0-6.171,6.954-10.87,6.664s-16.594,7.236-16.594,7.236-11.606,7.534-14.1,15.208a107.176,107.176,0,0,1-5,12.749l-14.347,29.563h0L295.62,394.2s1.464,10.431,1.175,12.021,6.022,15.929,6.022,15.929,20.855,36.642,29.375,38.522l.611-.431a5,5,0,0,0,1.151.431l1.754-1.237a19.116,19.116,0,0,1-.133,4.135c-1.175,3.618.439,27.229,2.49,31.857s1.323,65.313,1.323,65.313l-.29,5.357a2.271,2.271,0,0,0,.07.47l-.07,1.269.211.11a15.083,15.083,0,0,1-.211,5.1c-.736,2.349-1.034,8.99-1.034,8.99s-5.866,37.5-3.086,45.03,5.145,15.788,5.145,15.788,2.937,9.4.141,11-10.744,4.3-9.108,8.215c1.488,3.618,7.134,13.313,7.972,14.731l-.07.744-1.151,12.475a15.663,15.663,0,0,0,1.323,4.761c1.261,2.717,3.712,5.537,8.372,5.231.783-.055,1.692-.149,2.569-.266,8.528-1.143,19.03-4.949,19.03-4.949a7.76,7.76,0,0,1-1.488-1.23h0a4.3,4.3,0,0,1-1.308-3.132c.125-2.271-4.127-13.094-5.184-15.756-.164-.384-.251-.6-.251-.6s9.7-10.134,8.082-19.116c0,0-10.729-6.265-7.2-9.7s9.844-13.313,9.844-13.313.29-36.924,0-42.437a45.655,45.655,0,0,1,.54-11.457c.117-.572.258-1.128.407-1.676a102.229,102.229,0,0,0,14.754,1.12c1.8,0,3.634,0,5.482-.11q0,.783.07,1.692c.407,9.147,1.167,25.185,1.786,31.145.877,8.544,5.725,31.568,5.725,31.568s-9.249,5.936,1.613,20.565c0,0,0,5.3-.72,6.069h0a66.4,66.4,0,0,0-1.856,7.643c-.454,2.757-.642,5.545.094,6.993,1.762,3.461,12.334,3.179,12.334,3.179h0l.258-.047a15.154,15.154,0,0,1,11.191,3.375c4.017,3.226,19.265,1.809,27.519.783,3.234-.407,5.4-.783,5.4-.783a3.133,3.133,0,0,0,.11-1.128h0c-.086-2.028-1.676-6.477-12.452-10.447,0,0-10.134-6.813-9.993-12.749h-1.386a11.044,11.044,0,0,1,1.4,0s-3.97-14.488-2.349-15.662-3.234-17.229-3.234-17.229-2.78-26.939-2.929-28.827a16.446,16.446,0,0,1,.728-4.777l-.728-14.77s-.141-4.91,0-6.508a32.5,32.5,0,0,0-.337-4.143c-.07-.548-.141-1.12-.219-1.684,3.8-.963,6.265-1.856,6.265-1.856l-.439-51.412c3.226-6.265,3.822-20.009,3.806-29.759,0-6.265-.282-10.9-.282-10.9l4.409-7.2s1.018-8.614-.6-10.5a1.808,1.808,0,0,1,.2-2.467,8.2,8.2,0,0,1,.963-.658s-.047-.071-.1-.172a7.781,7.781,0,0,1,.979-.7s-1.566-2.428-.164-3.454c1.316.893,2.49,1.566,3.383,2.114-.063.572-.125.9-.125.9l.376-.783c.861.486,1.386.783,1.386.783s6.907-13.759,6.758-15.788,4.7-10.572,4.7-10.572.587-4.487,3.234-6.367,2.052-15.5,2.052-15.5.736-7.1,2.5-9.993S462.6,390.557,462.6,390.557Zm-132.16-6.038.133,3.281-1.347-2.169Z" transform="translate(-101.003 -93.229)" fill="url(#linear-gradient)"/>
    <path id="Path_30" data-name="Path 30" d="M481.751,508.03l-1.692,7.2s-13.548-6.915-15.991-15.7,4.088-12.123,4.088-12.123l12.624,5.349Z" transform="translate(-137.417 -151.623)" fill="#fff"/>
    <path id="Path_31" data-name="Path 31" d="M481.751,508.03l-1.692,7.2s-13.548-6.915-15.991-15.7,4.088-12.123,4.088-12.123l12.624,5.349Z" transform="translate(-137.417 -151.623)" opacity="0.1"/>
    <path id="Path_32" data-name="Path 32" d="M381.221,818.949s-12.53,4.6-21.144,5.184c-4.573.305-6.978-2.5-8.215-5.2a15.74,15.74,0,0,1-1.292-4.738l1.12-12.412.6-6.61,18.3-4.754,2.592,7.925.243.6c1.042,2.647,5.216,13.415,5.09,15.662A4.276,4.276,0,0,0,379.8,817.7a7.453,7.453,0,0,0,1.425,1.245Z" transform="translate(-112.921 -217.339)" fill="#fff"/>
    <path id="Path_33" data-name="Path 33" d="M483.423,812.409a3.133,3.133,0,0,1-.11,1.12s-26.8,4.472-32.28,0a14.519,14.519,0,0,0-11.277-3.3s-10.369.282-12.1-3.133c-.72-1.433-.533-4.213-.086-6.954a66.251,66.251,0,0,1,1.817-7.6l.415-.329,2.467-1.981,28.882-.854h.219c-.141,5.9,9.8,12.679,9.8,12.679C481.739,805.964,483.3,810.389,483.423,812.409Z" transform="translate(-129.535 -217.111)" fill="#fff"/>
    <path id="Path_34" data-name="Path 34" d="M483.424,815.391a3.2,3.2,0,0,1-.117,1.12s-26.791,4.472-32.273,0a14.519,14.519,0,0,0-11.269-3.3s-10.376.282-12.1-3.133c-.72-1.441-.54-4.213-.094-6.954,3.994.4,10.3,1.394,12.773,3.767,3.743,3.61,10.087,7.213,13.979,7.495C457.37,814.577,475.593,815.157,483.424,815.391Z" transform="translate(-129.536 -220.093)" opacity="0.1"/>
    <path id="Path_35" data-name="Path 35" d="M381.581,826.516s-12.53,4.6-21.144,5.184c-4.573.305-6.978-2.5-8.207-5.208,3.187,1.073,7.612,2.2,9.938,1.167,2.757-1.222,12.53-2.013,18.012-2.349A7.715,7.715,0,0,0,381.581,826.516Z" transform="translate(-113.281 -224.906)" opacity="0.1"/>
    <path id="Path_36" data-name="Path 36" d="M407.68,339.987c-10.337-4.017-23.635-17.291-20.314-23.494a13.877,13.877,0,0,0,1.292-4.981,45.478,45.478,0,0,0,.094-7.048A96.524,96.524,0,0,0,387.366,293s32.273.728,30.393,5.482a17.773,17.773,0,0,0-.486,6.523c.149,2.71.54,5.772.948,8.364.564,3.555,1.128,6.265,1.128,6.265s-1.974,2.764-3.133,2.913S422.513,345.712,407.68,339.987Z" transform="translate(-120.788 -109.461)" fill="#cf6f80"/>
    <path id="Path_37" data-name="Path 37" d="M373.7,798.948l-.243.266c-9.648-11.669-21.317,2.874-21.317,2.874l-.172-.305.6-6.61,18.3-4.754,2.592,7.925Z" transform="translate(-113.224 -217.339)" opacity="0.1"/>
    <path id="Path_38" data-name="Path 38" d="M461.995,790.184s-7.048-.149-10.807,3.172-21.927.72-21.144,0a2.576,2.576,0,0,0,.407-1.19l2.467-1.981,28.882-.854C461.909,789.855,461.995,790.184,461.995,790.184Z" transform="translate(-130.151 -217.102)" opacity="0.1"/>
    <path id="Path_39" data-name="Path 39" d="M383.5,669.127a21.789,21.789,0,0,0-1.19,4.017,45.976,45.976,0,0,0-.54,11.4c.29,5.482,0,42.218,0,42.218s-6.195,9.8-9.648,13.25,7.048,9.656,7.048,9.656c1.566,8.928-7.925,19.014-7.925,19.014-9.648-11.669-21.317,2.882-21.317,2.882S343.584,760.6,342,756.688s6.195-6.625,8.928-8.215-.133-10.964-.133-10.964-2.31-8.215-5.051-15.709,3.023-44.8,3.023-44.8.3-6.625,1.01-8.935a14.942,14.942,0,0,0,.211-5.075c-.047-.572-.1-1.049-.141-1.37s-.07-.47-.07-.47l.11-.188,3.916-7.3S385.379,664.53,383.5,669.127Z" transform="translate(-111.017 -187.679)" fill="#6c63ff"/>
    <path id="Path_40" data-name="Path 40" d="M459.651,762.02s-7.048-.149-10.807,3.132-21.927.72-21.144,0,.72-6.054.72-6.054c-10.658-14.55-1.566-20.455-1.566-20.455s-4.761-22.906-5.623-31.4c-.6-5.936-1.347-21.888-1.746-31-.172-3.916-.274-6.61-.274-6.61l8.708-1.754,1.12-.227,21-4.213s.579,3.916.971,7.119a33.283,33.283,0,0,1,.329,4.127c-.141,1.566,0,6.469,0,6.469l.713,14.7a16.694,16.694,0,0,0-.713,4.754c.141,1.872,2.874,28.67,2.874,28.67s4.754,15.991,3.133,17.143S459.651,762.02,459.651,762.02Z" transform="translate(-127.807 -189.8)" fill="#6c63ff"/>
    <path id="Path_41" data-name="Path 41" d="M417.9,298.482a17.772,17.772,0,0,0-.486,6.523,26.822,26.822,0,0,1-28.521-.533A96.52,96.52,0,0,0,387.51,293S419.783,293.713,417.9,298.482Z" transform="translate(-120.932 -109.461)" opacity="0.1"/>
    <path id="Path_42" data-name="Path 42" d="M427.411,270.478a26.524,26.524,0,0,1-1.316,8.309,26.8,26.8,0,0,1-52.266-7.667v-.642a26.8,26.8,0,1,1,53.593,0Z" transform="translate(-117.965 -98.764)" fill="#cf6f80"/>
    <path id="Path_43" data-name="Path 43" d="M407.68,345.114c-10.337-4.017-23.635-17.291-20.314-23.494a13.877,13.877,0,0,0,1.292-4.981l14.151,11.629,8.755,7.181,6.657-16.947c.564,3.555,1.128,6.265,1.128,6.265s-1.974,2.764-3.133,2.913S422.513,350.839,407.68,345.114Z" transform="translate(-120.788 -114.587)" opacity="0.1"/>
    <path id="Path_44" data-name="Path 44" d="M394.347,337.536,382.53,536.058l-15.412,1.01L327.21,421.957l6.547-136.663,1.378-28.874,17.746,14.574,8.763,7.181,6.852-17.44,12.741,11.1Z" transform="translate(-70.86 -55.613)" fill="#6c63ff"/>
    <path id="Path_45" data-name="Path 45" d="M385.713,669.144a21.787,21.787,0,0,0-1.19,4.017,113.55,113.55,0,0,1-32.312-10.094l-.211-.11.07-1.261.039-.658,3.916-7.3S387.593,664.547,385.713,669.144Z" transform="translate(-113.231 -187.696)" opacity="0.1"/>
    <path id="Path_46" data-name="Path 46" d="M428.085,676.537a79.3,79.3,0,0,1-8.661.987c-.172-3.916-.274-6.61-.274-6.61l8.708-1.754Z" transform="translate(-127.794 -191.041)" opacity="0.1"/>
    <path id="Path_47" data-name="Path 47" d="M453.674,670.609c-5.568,1.449-14.167,3.078-21.865,2.06l-.11-4.965,21-4.213S453.283,667.366,453.674,670.609Z" transform="translate(-130.516 -189.811)" opacity="0.1"/>
    <path id="Path_48" data-name="Path 48" d="M403.54,598c-32.108,5.482-61.514-10.235-61.514-10.235l.282-5.325s.728-60.371-1.292-65-3.595-28.1-2.451-31.7-4.174-57.622-4.174-57.622l-.861-21.927L302,393.415l14.1-29.383a106.034,106.034,0,0,0,4.9-12.687c2.451-7.628,13.83-15.122,13.83-15.122s11.669-7.487,16.281-7.2,10.658-6.625,10.658-6.625c4.464-11.379,8.5-6.226,8.5-6.226a10.165,10.165,0,0,1-.219,1.684c-1.566,12.491,25.326,51.96,25.71,52.657h0l2.561,62.384,2.592,78.947Z" transform="translate(-102.387 -114.233)" opacity="0.1"/>
    <path id="Path_49" data-name="Path 49" d="M402.433,597.985c-32.108,5.482-61.522-10.235-61.522-10.235l.29-5.325s.728-60.371-1.3-65-3.595-28.1-2.443-31.7-4.174-57.622-4.174-57.622l-.869-21.927-31.544-12.82,14.1-29.383a107.687,107.687,0,0,0,4.9-12.687c2.443-7.628,13.83-15.122,13.83-15.122s11.669-7.487,16.273-7.2,10.658-6.625,10.658-6.625c4.472-11.379,9.4-6.226,9.4-6.226,0,.54-.47.783-.219,1.684,3.446,12.115,24.465,51.96,24.849,52.657h0l2.592,62.384,2.592,78.947Z" transform="translate(-102.142 -114.22)" fill="#fff"/>
    <path id="Path_50" data-name="Path 50" d="M411.319,372.729c-3.454-1.441-21.747-22.327-21.747-22.327v-4.754c-.666-1.566-4.62-.611-7.831.486l1.378-28.874,1.566,1.3C388.115,330.667,410.919,372.032,411.319,372.729Z" transform="translate(-119.681 -114.722)" opacity="0.1"/>
    <path id="Path_51" data-name="Path 51" d="M412.426,370.519c-3.461-1.441-21.755-22.327-21.755-22.327v-4.754c-.666-1.566-4.62-.611-7.831.486l1.386-28.874,1.566,1.3C389.23,328.457,412.043,369.83,412.426,370.519Z" transform="translate(-119.919 -114.243)" fill="#fff"/>
    <path id="Path_52" data-name="Path 52" d="M352.622,518.252c.431,0,22.327-2.3,22.327-2.3s13.258,26.07,12.389,32.414-2.443,11.958-7.776,10.964-28.7.783-28.7.783Z" transform="translate(-112.984 -157.813)" opacity="0.1"/>
    <path id="Path_53" data-name="Path 53" d="M351.512,516.042c.431,0,22.327-2.3,22.327-2.3s13.25,26.078,12.389,32.414-2.451,11.958-7.776,10.964-28.7.783-28.7.783Z" transform="translate(-112.743 -157.334)" fill="#fff"/>
    <path id="Path_54" data-name="Path 54" d="M369.754,501.05s20.095,10.8,20.526,14.1-10.228-1.441-12.53-2.013a28.669,28.669,0,0,0-4.613-.72l-15.357.415Z" transform="translate(-114.484 -154.581)" fill="#cf6f80"/>
    <circle id="Ellipse_3" data-name="Ellipse 3" cx="2.114" cy="2.114" r="2.114" transform="translate(283.916 255.125)" opacity="0.1"/>
    <circle id="Ellipse_4" data-name="Ellipse 4" cx="2.114" cy="2.114" r="2.114" transform="translate(283.916 254.263)" fill="#3f3d56"/>
    <circle id="Ellipse_5" data-name="Ellipse 5" cx="2.114" cy="2.114" r="2.114" transform="translate(287.808 346.656)" opacity="0.1"/>
    <circle id="Ellipse_6" data-name="Ellipse 6" cx="2.114" cy="2.114" r="2.114" transform="translate(287.808 345.787)" fill="#3f3d56"/>
    <circle id="Ellipse_7" data-name="Ellipse 7" cx="2.114" cy="2.114" r="2.114" transform="translate(286.023 300.891)" opacity="0.1"/>
    <circle id="Ellipse_8" data-name="Ellipse 8" cx="2.114" cy="2.114" r="2.114" transform="translate(286.023 300.029)" fill="#3f3d56"/>
    <path id="Path_55" data-name="Path 55" d="M466.354,472.462s1.441,2.161,0,3.172.141,3.454.141,3.454-3.595,2.107-2.013,4,.58,10.455.58,10.455l-4.323,7.158s.258,4.613.274,10.846c0,9.726-.572,23.4-3.735,29.633l.439,51.146s-15.138,5.529-27.809,3.845L428.028,514.1s2.741-46.541,3.751-55.469a92.939,92.939,0,0,0,.72-13.979s-.431-13.971-1.879-20.455c0,0-1.566-28.091-1.723-35.867-.07-3.72.125-14.574.345-24.9.243-11.285.517-21.927.517-21.927L426.9,318.891s2.858-.29,3.72.861a8.242,8.242,0,0,0,1.253.963h0c4.934,3.336,22.366,13.6,22.366,13.6s9.648,3.837,11.958,9.335,3.916,9.4,5.035,10.964,1.731,8.928,1.731,8.928,3.32,13.548,5.913,15.843,4.487,16.892,4.487,16.892l-22.906,18.012s-2.013,29.962-2.443,31.121S466.354,472.462,466.354,472.462Z" transform="translate(-129.475 -115.069)" fill="#fff"/>
    <path id="Path_56" data-name="Path 56" d="M467.208,472.393s1.433,2.161,0,3.172.133,3.454.133,3.454-3.571,2.13-2,4.025.579,10.455.579,10.455l-4.323,7.158s.258,4.613.282,10.846c0,9.726-.572,23.4-3.735,29.633l.431,51.146s-15.161,5.529-27.817,3.845l-1.872-82.071s2.741-46.541,3.751-55.469a92.08,92.08,0,0,0,.713-13.979s-.431-13.971-1.872-20.455c0,0-1.566-28.091-1.731-35.867-.07-3.72.133-14.574.345-24.9.243-11.285.517-21.927.517-21.927L426.83,318.54s3.775,0,4.644,1.167a7.431,7.431,0,0,0,1.253.963h0c4.934,3.336,22.374,13.6,22.374,13.6s9.64,3.837,11.951,9.335,3.916,9.4,5.043,10.964,1.723,8.928,1.723,8.928,3.32,13.548,5.913,15.843,4.464,16.861,4.464,16.861l-22.906,18.012s-2.013,29.962-2.451,31.121S467.208,472.393,467.208,472.393Z" transform="translate(-129.46 -115)" fill="#fff"/>
    <path id="Path_57" data-name="Path 57" d="M440.016,348.586l2.067,6.03L431.2,365.58c.243-11.277.517-21.927.517-21.927L427.94,320.73s3.775,0,4.644,1.167a7.143,7.143,0,0,0,1.253.955h0l9.257,26.7Z" transform="translate(-129.7 -115.474)" opacity="0.1"/>
    <path id="Path_58" data-name="Path 58" d="M438.906,346.376l2.075,6.03L430.1,363.37c.243-11.285.517-21.927.517-21.927L426.83,318.52s3.782,0,4.644,1.167a7.833,7.833,0,0,0,1.253.963h0l9.264,26.7Z" transform="translate(-129.46 -114.995)" fill="#fff"/>
    <path id="Path_59" data-name="Path 59" d="M427.411,270.478a26.524,26.524,0,0,1-1.316,8.309,1.12,1.12,0,0,1-.846-.211c-.2-7.048-3.673-13.665-7.941-19.3A20.274,20.274,0,0,0,413,254.816a8.427,8.427,0,0,0-5.842-1.652c-2.349.321-4.425,1.919-6.8,2.122-3.132.258-5.936-1.911-9.045-2.02a8.888,8.888,0,0,0-6.649,3.085,18.239,18.239,0,0,0-3.563,6.61,38.671,38.671,0,0,0-1.989,11.4c-.039,2.193-.251,4.941-2.287,5.74a11.7,11.7,0,0,0-2.952-8.935l-.047-.047v-.642a26.8,26.8,0,1,1,53.593,0Z" transform="translate(-117.965 -98.764)" opacity="0.1"/>
    <path id="Path_60" data-name="Path 60" d="M409.451,223.084a18.45,18.45,0,0,0-13.016-1.018c-2.169.642-4.213,1.684-6.414,2.208-4.7,1.136-10.181-.094-14.214,2.655-2.24,1.566-3.587,4.041-4.84,6.445l-3.133,5.967c-1.707,3.266-3.43,6.586-4.143,10.181s-.282,7.62,2,10.51c1.66,2.107,4.111,3.43,5.913,5.411a11.747,11.747,0,0,1,2.945,8.928c2.044-.783,2.24-3.54,2.287-5.732a38.671,38.671,0,0,1,1.989-11.4,18.176,18.176,0,0,1,3.563-6.61,8.9,8.9,0,0,1,6.649-3.086c3.132.11,5.944,2.271,9.045,2.013,2.349-.2,4.432-1.8,6.8-2.114a8.4,8.4,0,0,1,5.842,1.652,20.065,20.065,0,0,1,4.3,4.464c4.276,5.631,7.745,12.232,7.949,19.3.885.65,2.161-.2,2.6-1.2a28.627,28.627,0,0,1,1.01-3.133c.642-1.1,1.872-1.692,2.835-2.522,2.443-2.107,3.054-5.654,2.96-8.873s-.72-6.484-.11-9.648c.368-1.942,1.2-3.759,1.652-5.678a7.424,7.424,0,0,0-.564-5.725c-1.566-2.428-4.863-2.905-7.737-3.133-3.266-.282-6.187.078-8.27-2.67a29.991,29.991,0,0,0-3.289-4.025C413.641,225.841,409.451,223.256,409.451,223.084Z" transform="translate(-115.699 -93.917)" fill="#512e4e"/>
    <path id="Path_61" data-name="Path 61" d="M310.536,430.26l-8.184-15.13-2.592,23.345s1.441,10.369,1.151,11.958,5.9,15.843,5.9,15.843,20.463,36.447,28.819,38.326l28.232-20.173-7.487-9.507s-2.592-1.01-3.242,0c0,0-13.9-23.917-15.341-25.647s-1.159-5.184-1.159-5.184-2.161-2.3-1.441-4.464-4.174-9.656-4.174-9.656l4.464-4.174Z" transform="translate(-101.901 -135.948)" opacity="0.1"/>
    <path id="Path_62" data-name="Path 62" d="M302.3,412.93l-2.161,1.723L297.55,438s1.441,10.369,1.151,11.958,5.913,15.843,5.913,15.843,20.455,36.447,28.811,38.326l28.239-20.173-7.495-9.507s-2.592-1.01-3.242,0c0,0-13.9-23.917-15.341-25.647s-1.151-5.184-1.151-5.184-2.161-2.3-1.441-4.464-4.182-9.656-4.182-9.656l4.464-4.174Z" transform="translate(-101.422 -135.47)" fill="#fff"/>
    <path id="Path_63" data-name="Path 63" d="M470.365,525.847c1.566,1.9.579,10.447.579,10.447l-4.323,7.158s.258,4.62.274,10.846l-7.267,2.271a4.315,4.315,0,0,1-5.6-4.252l1.253-40.417,16.955,6.484c-1.441,1,.141,3.461.141,3.461S468.783,523.944,470.365,525.847Z" transform="translate(-135.358 -156.935)" opacity="0.1"/>
    <path id="Path_64" data-name="Path 64" d="M471.473,524.74c1.566,1.9.579,10.455.579,10.455l-4.323,7.158s.258,4.613.282,10.846l-7.4,2.31a4.229,4.229,0,0,1-5.482-4.166L456.39,510.8l16.962,6.484c-1.449,1,.133,3.454.133,3.454S469.907,522.844,471.473,524.74Z" transform="translate(-135.597 -156.696)" fill="#fff"/>
    <path id="Path_65" data-name="Path 65" d="M479.414,502.254s-1.151,7.354-4.033,7.784-4.174,11.9-7.048,11.488-.971-10.658-.869-12.647-3.133-10.228-.713-12.1,10.079,0,10.079,0Z" transform="translate(-137.922 -153.475)" fill="#cf6f80"/>
    <path id="Path_66" data-name="Path 66" d="M484.727,428.654l5.435-10.964s2.161,8.356,2.161,12.82,3.023,4.9,3.023,4.9,3.313,3.916,1.566,6.766-2.451,9.946-2.451,9.946.572,13.54-2.02,15.412-3.132,6.343-3.132,6.343-4.761,8.5-4.613,10.517-6.625,15.7-6.625,15.7,3.313-17-15.991-24.347c0,0-.149-5.772,1.292-7.354s3.689-2.3,2.279-10.3-.407-17.55-.407-19.468,4.323-13.885,4.323-13.885Z" transform="translate(-137.103 -136.503)" opacity="0.1"/>
    <path id="Path_67" data-name="Path 67" d="M487.53,415.69l4.746,1.566s2.169,8.356,2.169,12.82,3.023,4.9,3.023,4.9,3.313,3.916,1.566,6.766-2.443,9.946-2.443,9.946.572,13.54-2.02,15.412-3.172,6.343-3.172,6.343-4.754,8.5-4.6,10.517-6.633,15.7-6.633,15.7,3.32-17-15.991-24.347c0,0-.141-5.772,1.3-7.354s3.689-2.3,2.279-10.3-.407-17.55-.407-19.468,4.323-13.885,4.323-13.885Z" transform="translate(-137.557 -136.069)" fill="#fff"/>
    <path id="Path_68" data-name="Path 68" d="M360.15,777.852s7.565-4.754,12.53-1.3S360.15,777.852,360.15,777.852Z" transform="translate(-114.998 -214.058)" opacity="0.1"/>
    <path id="Path_69" data-name="Path 69" d="M435.21,759.778a15.314,15.314,0,0,1,12.319,5.192C453.151,771.024,435.21,759.778,435.21,759.778Z" transform="translate(-131.277 -210.684)" opacity="0.1"/>
    <g id="Group_1" data-name="Group 1" transform="translate(247.685 144.618)" opacity="0.1">
      <path id="Path_70" data-name="Path 70" d="M432.53,271.032c-.963.83-2.2,1.425-2.843,2.53a28.659,28.659,0,0,0-1,3.132c-.439,1.018-1.715,1.848-2.6,1.206-.2-7.048-3.681-13.666-7.949-19.3a20.063,20.063,0,0,0-4.3-4.464,8.418,8.418,0,0,0-5.85-1.652c-2.349.321-4.417,1.919-6.79,2.114-3.133.266-5.944-1.9-9.053-2.013a8.865,8.865,0,0,0-6.641,3.093,18.137,18.137,0,0,0-3.563,6.6,38.718,38.718,0,0,0-1.989,11.4c-.047,2.185-.251,4.91-2.271,5.725a10.726,10.726,0,0,1,0,1.739c2.036-.783,2.24-3.54,2.287-5.733a38.672,38.672,0,0,1,1.989-11.4,18.176,18.176,0,0,1,3.563-6.61,8.888,8.888,0,0,1,6.641-3.086c3.132.11,5.952,2.271,9.053,2.013,2.349-.2,4.432-1.8,6.79-2.114a8.419,8.419,0,0,1,5.85,1.652,20.063,20.063,0,0,1,4.3,4.464c4.268,5.631,7.745,12.232,7.949,19.3.885.65,2.161-.2,2.6-1.2a30.393,30.393,0,0,1,1-3.133c.642-1.1,1.879-1.692,2.843-2.522,2.443-2.107,3.054-5.654,2.96-8.873v-.3C435.357,266.388,434.613,269.231,432.53,271.032Z" transform="translate(-366.485 -245.283)"/>
      <path id="Path_71" data-name="Path 71" d="M371.619,272.2c-1.8-1.981-4.26-3.3-5.913-5.4a11.465,11.465,0,0,1-2.279-6.414,12.06,12.06,0,0,0,2.279,8.137c1.652,2.107,4.111,3.43,5.913,5.411a11.747,11.747,0,0,1,2.952,6.986A11.747,11.747,0,0,0,371.619,272.2Z" transform="translate(-363.385 -247.004)"/>
      <path id="Path_72" data-name="Path 72" d="M452.938,244.851c-.462,1.919-1.284,3.743-1.66,5.678a18.087,18.087,0,0,0-.243,3.916,15.206,15.206,0,0,1,.243-2.224c.376-1.942,1.2-3.759,1.66-5.678a9.633,9.633,0,0,0,.258-3.242,10.877,10.877,0,0,1-.258,1.551Z" transform="translate(-382.389 -243.3)"/>
    </g>
    <ellipse id="Ellipse_9" data-name="Ellipse 9" cx="76.308" cy="12.256" rx="76.308" ry="12.256" transform="translate(27.741 571.123)" fill="#6c63ff" opacity="0.1"/>
    <rect id="Rectangle_27" data-name="Rectangle 27" width="4.91" height="110.554" transform="translate(101.597 348.599)" fill="#535461"/>
    <path id="Path_73" data-name="Path 73" d="M204.062,642.432l-.305,4.981-.439,7.048-.18,2.929-.431,7.048-.188,2.929-.439,7.048-4.949,79.934a13.548,13.548,0,0,1-13.517,12.7H157.881a13.54,13.54,0,0,1-13.509-12.7l-4.926-79.988-.439-7.048-.18-2.929-.439-7.048-.18-2.929-.439-7.048-.313-4.981a7.048,7.048,0,0,1,7.048-7.448h52.634a7,7,0,0,1,6.923,7.5Z" transform="translate(-66.699 -183.617)" fill="#3f3d56"/>
    <path id="Path_74" data-name="Path 74" d="M156.6,592.24l-.439,7.025H91.019l-.439-7.025Z" transform="translate(-19.54 -128.444)" fill="#9d9cb5"/>
    <path id="Path_75" data-name="Path 75" d="M156.15,604.95l-.431,7.032H91.809l-.439-7.032Z" transform="translate(-19.712 -131.2)" fill="#9d9cb5"/>
    <path id="Path_76" data-name="Path 76" d="M155.7,617.68l-.431,7.025H92.6l-.439-7.025Z" transform="translate(-19.883 -133.961)" fill="#9d9cb5"/>
    <path id="Path_77" data-name="Path 77" d="M110.792,550.625c28.592,20.69,40.527,53.049,40.527,53.049s-34.457-1.183-63.057-21.873S47.75,528.76,47.75,528.76,82.192,529.935,110.792,550.625Z" transform="translate(-47.247 -160.591)" fill="#6c63ff"/>
    <path id="Path_78" data-name="Path 78" d="M47.72,528.76s35.773,19.852,47.246,36.29,56.346,38.624,56.346,38.624" transform="translate(-47.24 -160.591)" fill="none" stroke="#535461" stroke-miterlimit="10" stroke-width="2"/>
    <path id="Path_79" data-name="Path 79" d="M142.316,500.163c15.561,11.254,22.068,28.866,22.068,28.866s-18.756-.642-34.324-11.9S108,488.26,108,488.26,126.748,488.9,142.316,500.163Z" transform="translate(-60.313 -151.808)" fill="#6c63ff"/>
    <path id="Path_80" data-name="Path 80" d="M108,488.26s19.468,10.807,25.71,19.75,30.675,21.019,30.675,21.019" transform="translate(-60.313 -151.808)" fill="none" stroke="#535461" stroke-miterlimit="10" stroke-width="2"/>
    <path id="Path_81" data-name="Path 81" d="M202.851,532.023c-17.879,19.649-21.661,45.327-21.661,45.327s25.209-6.187,43.072-25.843,21.661-45.327,21.661-45.327S220.73,512.375,202.851,532.023Z" transform="translate(-76.186 -155.694)" fill="#6c63ff"/>
    <path id="Path_82" data-name="Path 82" d="M245.939,506.19s-23.29,20.142-29.211,34.019-35.538,37.144-35.538,37.144" transform="translate(-76.186 -155.696)" fill="none" stroke="#535461" stroke-miterlimit="10" stroke-width="2"/>
    <path id="Path_83" data-name="Path 83" d="M998.234,472.518s-12.929-64.326-7.98-72.329c0,0,.18-7.44-.117-16.923v-1.089a24.077,24.077,0,0,0,2.717,1.566,21.99,21.99,0,0,0,14.8,1.911l-3.916-4.362a7.229,7.229,0,0,1-2.122-3.548,7.433,7.433,0,0,1,.846-3.837c3.72-9.4,3.916-21.215-3.25-28.388-6.053-6.03-7.526-13.814-14.1-19.32-4.8-4.033-7.44-9.946-9.93-15.662a88.085,88.085,0,0,1-5.435-14.825c-.94-4-1.316-8.145-2.608-12.052s-3.712-7.706-7.495-9.452a28.281,28.281,0,0,1-4.072-1.793c-1.613-1.089-2.584-2.858-3.751-4.409-5.928-7.831-25.78-3.219-35.178-.039a19.79,19.79,0,0,0-6.954,3.853l.086-.141c.07-.117.157-.235.235-.352a12.358,12.358,0,0,0-2.631,2.937c-1.37,2.169-1.942,4.7-3.086,7.048-1.378,2.78-9.045,10.541-5.748,13.666a2.777,2.777,0,0,0,.783.5,6.774,6.774,0,0,0,3.916.392l-.141.337a22.89,22.89,0,0,0-1.7,8.685,23.505,23.505,0,0,0,23.713,23.3,23.939,23.939,0,0,0,7.26-1.12c.055.3.1.6.157.893a2.727,2.727,0,0,0,.055.352h0l-.415.58a.783.783,0,0,0-.07-.1l-12.3,17.182c-1.88,1.323-12.7,9.155-13.313,15.028-.642,6.429-1.284,13.955-1.284,13.955l-.086,1.613a4.84,4.84,0,0,1-3.916,1.057c-3.837-.627-3.837,14.1-3.837,14.1s-2.553,2.349-4.307.313-6.39,4.863-6.39,4.863l-29.054,1.253h0l-.666.039-1.566-4.848a2.044,2.044,0,0,0-2.561-1.308,2.345,2.345,0,0,0-.352.149l-.11.063-.2.141-.1.094a1.582,1.582,0,0,0-.157.164l-.094.11-.047.047h0a1.974,1.974,0,0,0-.282,1.754l1.347,4.158c-5.607,1.128-11.34,4.307-6.664,13.063l-23.7-4.378,7.667,6.437,39.579,8.168c-.525.94-.18,2.3,1.457,4.221,7.048,8.278,19.891,10.525,25.06,11.1a44.475,44.475,0,0,0,5.083,8.614l-.447,8.246s-13.086,62.854-15.482,66.041a37.254,37.254,0,0,0,3.313-4.362c-3.8,12.914-9.108,30.589-10.5,33.236-2.24,4.229-4.315,21.34-1.762,22.437.783.337,3.023.172,6.218-.07v1.417l-.141,53.715s.642,32.946-1.12,36.086-2.232,9.726-2.232,9.726-7.048,12.992-12.632,18.216a.842.842,0,0,1-.125.11l-.172-1.222s-6.711,8.473-21.559,8c0,0-8.935,5.811,4.315,6.124s30.174-.47,30.174-.47,11.817-18.012,21.716-15.662v13.65h3.031V687.29a12.428,12.428,0,0,0,5.4-8.168,9.93,9.93,0,0,0-3.54-9.186,5.874,5.874,0,0,1-1.934-4.291l-.11.094a8.3,8.3,0,0,0-.1-.846c-.869-7.048-1.958-21.591,1.887-32.351,5.27-14.754,6.868-35.3,3.031-47.536a109.288,109.288,0,0,1-3.046-11.911c-.094-.509-.18-.995-.259-1.449a61.732,61.732,0,0,1,7.776,1.566c8.888,2.451,28.333,2.905,44.936,2.772.039.454.086.932.141,1.41a51.3,51.3,0,0,0,1.848,9.8c2.083,6.265,3.039,33.886,3.039,33.886s2.686,22.711,1.222,31.951c-.783,5.137-1.566,10.3-2.013,15.482v.1s-4.4,12.53-7.62,19.335c-.078.172-.165.345-.243.509a10.181,10.181,0,0,0-2.514.556s-4.315,8.614-8.614,10.04-2.874,6.116,6.86,4.393,24.433-3.133,24.433-3.133l.634-8.787,2.992-3.743-.783,8.763,3.187-.627-.423-10.658,4.894-6.124s5.913-5.263-2.874-15.615v.227c-.094-.149-.18-.305-.282-.454v-.047c-1.457-2.255-2.616-6.461-.493-13.924,3.837-13.485,6.069-25.726,6.069-25.726s8.567-32.789-1.731-48.3h.454a26.1,26.1,0,0,1-2.216-6.891q-.078-.423-.141-.869c7.62-.439,15.1-1.817,21.2-4.793C1004.946,562.719,1001.273,484.907,998.234,472.518Zm-96.739-54.27v.157l-1.566.078Zm-5.372.744a1.73,1.73,0,0,0-.7.337,6.953,6.953,0,0,0-1.229,3.219L891.745,422s-1.715-.368-4.182-.783l-1.167-1.175C889.607,419.775,892.943,419.383,896.123,418.992Z" transform="translate(-215.264 -103.104)" fill="url(#linear-gradient-2)"/>
    <path id="Path_84" data-name="Path 84" d="M972.252,743.1l-.932,11.1,3.125-.627-.47-12.037Z" transform="translate(-210.552 -160.821)" fill="#1d2366"/>
    <path id="Path_85" data-name="Path 85" d="M916.92,716.482c-3.767,10.729-2.7,25.209-1.856,32.241.313,2.6.6,4.182.6,4.182s-5.631,12.828-6.1,13.313S893,776.532,893,776.532l-11.254,6.57s-11.418-5-5.944-6.727a8.309,8.309,0,0,0,2.952-2.013c5.482-5.208,12.365-18.153,12.365-18.153s.47-6.57,2.193-9.7,1.1-35.961,1.1-35.961l.133-53.526V650.05l21.418.157a48.476,48.476,0,0,0,.924,7.048,107.723,107.723,0,0,0,2.984,11.872C923.64,681.336,922.073,701.783,916.92,716.482Z" transform="translate(-226.508 -186.896)" fill="#ffb0b1"/>
    <path id="Path_86" data-name="Path 86" d="M915.667,780.236s-5.631,12.828-6.1,13.313S893,803.863,893,803.863l-11.254,6.57s-11.418-5-5.944-6.727a8.309,8.309,0,0,0,2.952-2.013l.485,3.422,3.751-.157L915.1,776.07C915.378,778.654,915.667,780.236,915.667,780.236Z" transform="translate(-226.508 -214.227)" opacity="0.1"/>
    <path id="Path_87" data-name="Path 87" d="M909.767,777l-32.288,29.085-3.751.157-.783-5.482s-6.563,8.442-21.144,7.972c0,0-8.755,5.787,4.221,6.1s29.547-.47,29.547-.47,11.575-18.012,21.262-15.662v13.6h2.976V798.575a12.365,12.365,0,0,0,5.278-8.144,9.977,9.977,0,0,0-3.454-9.147A5.9,5.9,0,0,1,909.767,777Z" transform="translate(-220.999 -214.428)" fill="#1d2366"/>
    <path id="Path_88" data-name="Path 88" d="M1015.5,733.048c-2.083,7.44-.948,11.629.478,13.877v.047a25.648,25.648,0,0,1,3.743,9.139l.125.7-14.691,21.418-7.972,3.133s-12.82-4.378-10.478-5.631c.587-.305,1.5-1.934,2.553-4.182,3.133-6.774,7.455-19.273,7.455-19.273v-.1c.454-5.161,1.175-10.306,1.974-15.428,1.433-9.217-1.2-31.842-1.2-31.842s-.94-27.511-2.976-33.768a51.635,51.635,0,0,1-1.825-9.742c-.423-3.916-.517-7.142-.517-7.142s8.442-11.747,23.917.94a17.025,17.025,0,0,1,3.234,3.508c10.69,15.208,2.083,48.71,2.083,48.71S1019.247,719.6,1015.5,733.048Z" transform="translate(-250.82 -186.734)" fill="#ffb0b1"/>
    <path id="Path_89" data-name="Path 89" d="M1019.873,783.8l-14.691,21.418-7.972,3.132s-12.82-4.378-10.478-5.631c.587-.306,1.5-1.934,2.553-4.182,5.427-.047,8.238,5.122,8.238,5.122l6.876-1.1s9.069-17.824,11.1-18.912.313-8.137.313-8.137V773.72c.055.063.1.133.164.2v.047a25.644,25.644,0,0,1,3.743,9.139Z" transform="translate(-250.827 -213.717)" opacity="0.1"/>
    <path id="Path_90" data-name="Path 90" d="M995.065,804.247s-3.916-7.189-11.418-4.534c0,0-4.221,8.614-8.442,10.008s-2.811,6.093,6.727,4.378,23.917-3.133,23.917-3.133l.626-8.763,9.7-12.35s5.779-5.239-2.819-15.553v1.793s1.723,7.048-.313,8.137-11.073,18.92-11.073,18.92Z" transform="translate(-247.9 -213.843)" fill="#1d2366"/>
    <path id="Path_91" data-name="Path 91" d="M921.582,650.187a48.476,48.476,0,0,0,.924,7.048c-8.818-1.292-17-.65-22.366-.227V650.03Z" transform="translate(-232.109 -186.892)" opacity="0.1"/>
    <path id="Path_92" data-name="Path 92" d="M1021.789,660.654s-12.53.611-27.472.736c-.423-3.916-.517-7.142-.517-7.142s8.442-11.747,23.917.94a17.023,17.023,0,0,1,3.234,3.508,19.118,19.118,0,0,0,.838,1.958Z" transform="translate(-252.422 -186.732)" opacity="0.1"/>
    <path id="Path_93" data-name="Path 93" d="M999.475,621.256s-54.881,2.655-71.609-2.036-33.306-.626-35.8-1.715-.47-18.137,1.723-22.358,14.221-46.909,14.221-46.909l11.575-60.348,12.193-3.36.861-.243,21.246-5.858,15.569-4.3s30.957,120.86,28.3,129.772a22.821,22.821,0,0,0-.454,10.486A26.174,26.174,0,0,0,999.475,621.256Z" transform="translate(-230.107 -148.743)" fill="#1d2366"/>
    <path id="Path_94" data-name="Path 94" d="M874.4,439s-10.964,11.747-2.663,18.294,13.76.626,13.76.626Z" transform="translate(-225.276 -141.124)" fill="#c7daf5"/>
    <path id="Path_95" data-name="Path 95" d="M874.4,439s-10.964,11.747-2.663,18.294,13.76.626,13.76.626Z" transform="translate(-225.276 -141.124)" opacity="0.1"/>
    <path id="Path_96" data-name="Path 96" d="M982.615,334.45s-1.284,1.222-3.219,3.023c-2.757,2.576-6.837,6.343-10.455,9.5-5.012,4.362-9.147,7.565-7.667,4.832s1.2-7.495.462-11.95c-.055-.3-.1-.6-.157-.885a82.076,82.076,0,0,0-2.42-9.679s8.1-10.463,12.577-14.59c1.668-1.566,2.835-2.208,2.905-1.12.078,1.464,1.175,4.7,2.537,8.129.039.11.078.211.125.321.908,2.349,1.934,4.761,2.835,6.845C981.518,332.069,982.615,334.45,982.615,334.45Z" transform="translate(-244.909 -113.806)" fill="#ffb0b1"/>
    <path id="Path_97" data-name="Path 97" d="M977.3,322.032a23.243,23.243,0,0,1-15.569,17.824,81.484,81.484,0,0,0-2.576-10.564s15.247-19.7,15.482-15.709C974.7,315.094,975.888,318.446,977.3,322.032Z" transform="translate(-244.909 -113.809)" opacity="0.1"/>
    <path id="Path_98" data-name="Path 98" d="M952.39,353.23l1.974-2.78s1.308,7.972,6.116,4.456,5.043,26.462,5.043,26.462l-5.161,77.161L923.07,456.3l1.057-37.285,4.221-18.795,10.439-27.323,6.21-9.029Z" transform="translate(-237.082 -121.92)" opacity="0.1"/>
    <path id="Path_99" data-name="Path 99" d="M965.53,381.967l-4.7,69.769-.493,7.393-20.792-1.245-.783-.047L923.1,456.9l1.057-37.292,4.221-18.795,10.439-27.323,6.21-9.029,7.393-10.674,1.974-2.772s1.308,7.972,6.116,4.456l.1-.07h0C965.31,352.42,965.53,381.967,965.53,381.967Z" transform="translate(-237.089 -122.041)" fill="#1d2366"/>
    <path id="Path_100" data-name="Path 100" d="M917.127,406.26s-1.872,3.916-5.631,3.281-3.751,14.1-3.751,14.1-2.5,2.349-4.221.313-6.265,4.848-6.265,4.848L868.8,430.051s12.663,5.787,10.181,23.3c0,0,42.994-2.663,44.4-6.727S917.127,406.26,917.127,406.26Z" transform="translate(-225.312 -134.024)" fill="#fff"/>
    <path id="Path_101" data-name="Path 101" d="M917.127,406.26s-1.872,3.916-5.631,3.281-3.751,14.1-3.751,14.1-2.5,2.349-4.221.313-6.265,4.848-6.265,4.848L868.8,430.051s12.663,5.787,10.181,23.3c0,0,42.994-2.663,44.4-6.727S917.127,406.26,917.127,406.26Z" transform="translate(-225.312 -134.024)" opacity="0.03"/>
    <path id="Path_102" data-name="Path 102" d="M777.66,389.76l7.5,6.406,61.757,12.976-7.659-7.816Z" transform="translate(-168.551 -84.531)" fill="#fff"/>
    <path id="Path_103" data-name="Path 103" d="M948.279,355.122c-1.026,1.566-3.963,9.585-6.414,16.587-2.044,5.834-3.751,10.964-3.751,10.964s-3.986,25.953-6.022,30.644-.932,22.985-.932,22.985l-7.589,45.178s-3.438,23.3-8.747,37.214c-5.239,13.7-11.073,20.119-11.253,20.322,2.349-3.18,15.153-65.782,15.153-65.782l4.229-78.955s.619-7.5,1.245-13.916,13.313-15.169,13.313-15.169L949.743,347.8C950.972,349.445,950.15,352.311,948.279,355.122Z" transform="translate(-232.853 -121.345)" fill="#fff"/>
    <path id="Path_104" data-name="Path 104" d="M912.071,481.924s-18.012-.783-26.736-11.261S905.5,466.48,905.5,466.48l7.51,1.723Z" transform="translate(-228.542 -146.677)" fill="#ffb0b1"/>
    <path id="Path_105" data-name="Path 105" d="M1009.068,578.384a22.821,22.821,0,0,0-.454,10.486c-19.649,1.394-40.668-3.916-40.668-3.916-3.916,3.6-14.229,8.912-14.229,8.912l-5.623-69.7c-3.595-9.4-5-58.633-5-58.633s.321-2.576.783-6.437a.741.741,0,0,1,.039-.29c1.4-10.784,4.182-31.027,5.544-33.761,1.88-3.759-5.779-13.759-5.779-13.759l3.485-29.72.423-3.587c7.346-3.281,12.976-13.759,12.976-13.759l4.323-7.573h0c4.7-3.015,4.941,26.532,4.941,26.532l-4.7,69.769,15.569-4.3S1011.723,569.472,1009.068,578.384Z" transform="translate(-241.424 -123.218)" opacity="0.1"/>
    <path id="Path_106" data-name="Path 106" d="M1029.494,578.031c-21.418,10.635-60.348.783-60.348.783-3.916,3.6-14.229,8.912-14.229,8.912l-5.631-69.7c-3.587-9.4-5-58.633-5-58.633s4.526-36.736,6.406-40.488c.548-1.1.282-2.725-.368-4.479A56.682,56.682,0,0,1,946.9,388.2l1.5-12.773.415-3.579c7.354-3.289,12.984-13.767,12.984-13.767l3.916-6.86,7.2-12.64,3.414-5.983.579.525,4.425,4.01,4.7,3.916c6.132,5.169,16.728,14.269,22.194,19.837,4.808,4.9,6.328,23.971,6.766,38.326.29,9.452.118,16.861.118,16.861-4.848,7.98,7.831,72.047,7.831,72.047C1025.9,500.5,1029.494,578.031,1029.494,578.031Z" transform="translate(-241.684 -118.049)" fill="#fff"/>
    <path id="Path_107" data-name="Path 107" d="M982.338,364.634s-14.7,27.981-12.992,38.616,6.563,22.671,4.221,25.483a8.653,8.653,0,0,1-6.884,3.438c-2.349.157-8.614,4.534-8.614,5s-5.787.47-10.964,2.663a68.266,68.266,0,0,1-12.82,3.438s-14.879-.47-16.266.94-2.811,9.844.157,16.571,6.265,11.747,8.755,12.663,18.294-4.378,31.114-5.631,26.736-11.41,26.736-11.41,15.326-5.482,18.012-14.7-3.281-59.878-3.281-59.878S995,358.22,982.338,364.634Z" transform="translate(-235.643 -124.757)" opacity="0.03"/>
    <path id="Path_108" data-name="Path 108" d="M979.945,361.635s-14.7,27.989-12.976,38.616,6.563,22.671,4.213,25.491a8.614,8.614,0,0,1-6.876,3.438c-2.349.157-8.614,4.534-8.614,5s-5.787.47-10.964,2.655a68.936,68.936,0,0,1-12.82,3.438s-14.879-.47-16.258.94-2.819,9.852.157,16.571,6.265,11.747,8.755,12.663,18.294-4.378,31.114-5.623,26.736-11.418,26.736-11.418,15.318-5.482,17.973-14.691-3.281-59.885-3.281-59.885S992.608,355.229,979.945,361.635Z" transform="translate(-235.128 -124.107)" opacity="0.03"/>
    <path id="Path_109" data-name="Path 109" d="M981.753,362.837s-14.7,27.989-12.976,38.616,6.563,22.672,4.221,25.483a8.614,8.614,0,0,1-6.884,3.446c-2.349.157-8.614,4.534-8.614,5s-5.779.47-10.964,2.663a68.42,68.42,0,0,1-12.82,3.438s-14.879-.47-16.266.94-2.811,9.852.157,16.571,6.265,11.747,8.755,12.663,18.294-4.378,31.114-5.631,26.736-11.41,26.736-11.41,15.326-5.482,18.012-14.7-3.242-59.878-3.242-59.878S994.408,356.462,981.753,362.837Z" transform="translate(-235.519 -124.369)" fill="#fff"/>
    <path id="Path_110" data-name="Path 110" d="M997.23,458.806s-11.747-2.349-7.659,1.566,4.064,7.346,9.069,7.189S997.23,458.806,997.23,458.806Z" transform="translate(-251.317 -145.268)" opacity="0.1"/>
    <path id="Path_111" data-name="Path 111" d="M1024.556,566.58s-5.31,3.595,4.847,11.88S1024.556,566.58,1024.556,566.58Z" transform="translate(-258.791 -168.793)" opacity="0.1"/>
    <path id="Path_112" data-name="Path 112" d="M1011.937,604.31c0,.47-1.88,17.229,5.153,21.418S1011.937,604.31,1011.937,604.31Z" transform="translate(-256.306 -176.976)" opacity="0.1"/>
    <path id="Path_113" data-name="Path 113" d="M865.724,436.59c-5.67.2-17.918,1.926-11.567,13.775,5.615,10.486,15.052,3.477,20.361-1.84a20.009,20.009,0,0,0-8.795-11.935Z" transform="translate(-221.75 -140.602)" fill="#ffb0b1"/>
    <path id="Path_114" data-name="Path 114" d="M881.39,451Z" transform="translate(-228.043 -143.727)" fill="#ffb0b1"/>
    <path id="Path_115" data-name="Path 115" d="M880.74,451.643l.235-.243Z" transform="translate(-227.902 -143.814)" fill="#ffb0b1"/>
    <path id="Path_116" data-name="Path 116" d="M987.177,341.656c-6.014,4.111-11.058,7.581-12.044,8.3-2.694,2-7.831,13.72-11.144,19.7-2.639,4.816-11.214,6.054-14.449,6.359l.415-3.579c7.354-3.289,12.984-13.767,12.984-13.767l14.535-25.483,5,4.55Z" transform="translate(-242.823 -118.177)" opacity="0.1"/>
    <path id="Path_117" data-name="Path 117" d="M987.177,341.056c-6.014,4.111-11.058,7.581-12.044,8.309-2.694,1.989-7.831,13.713-11.144,19.7-2.639,4.816-11.214,6.054-14.449,6.359l.415-3.579c7.354-3.289,12.984-13.767,12.984-13.767l14.535-25.483,5,4.534S984.358,338.675,987.177,341.056Z" transform="translate(-242.823 -118.047)" fill="#dce7ff"/>
    <path id="Path_118" data-name="Path 118" d="M969.954,311.488a23.227,23.227,0,1,1-19.746-22.961,23.189,23.189,0,0,1,19.746,22.961Z" transform="translate(-237.174 -108.433)" fill="#ffb0b1"/>
    <path id="Path_119" data-name="Path 119" d="M1010.956,389.6a20.644,20.644,0,0,1-7.494-8.051c-1.308-2.584-2.177-5.568-4.409-7.4-2.013-1.645-4.7-2.044-7.2-2.78-8.239-2.435-15.146-9.953-15.4-18.537-.125-4.041,1.135-8.074.564-12.076a13.375,13.375,0,0,0-2.616-6.226,21.44,21.44,0,0,0-2.263-2.435c-1.1-1.034-2.247-2.036-3.25-3.133a12.161,12.161,0,0,1-1.645-2.232,10.739,10.739,0,0,1-.9-2.075c-1.566-4.793-.141-10.478-1.864-15.326l-.094-.266c-.65-1.723-1.973-3.446-3.814-3.579s-3.414,1.394-5.169,2.075c-3.673,1.425-7.635-1-10.7-3.477s-6.516-5.3-10.408-4.754c-2.576.368-4.613,2.122-6.985,3.031a9.794,9.794,0,0,1-1.652.478,23.22,23.22,0,0,1,44.771,8.654,22.981,22.981,0,0,1-.509,4.848c.039.11.078.211.125.321.908,2.349,1.934,4.761,2.835,6.844l4.425,4.01,4.7,3.916c6.132,5.169,16.728,14.269,22.194,19.837C1009,356.189,1010.5,375.25,1010.956,389.6Z" transform="translate(-237.642 -108.433)" opacity="0.1"/>
    <path id="Path_120" data-name="Path 120" d="M925.63,283.121c1.12-2.279,1.676-4.832,3.015-6.993,1.966-3.132,5.4-5.137,8.92-6.351,9.2-3.172,28.647-7.776,34.458,0,1.143,1.566,2.091,3.3,3.673,4.385a27.271,27.271,0,0,0,3.986,1.793c3.7,1.739,6.069,5.529,7.33,9.4s1.637,8.019,2.561,12.005a88.29,88.29,0,0,0,5.325,14.778c2.436,5.686,5.02,11.582,9.719,15.6,6.414,5.482,7.831,13.243,13.783,19.257,7.048,7.142,6.821,18.928,3.187,28.286a7.766,7.766,0,0,0-.83,3.822,7.493,7.493,0,0,0,2.075,3.54l3.853,4.346a21.665,21.665,0,0,1-23.674-10.917c-1.308-2.584-2.177-5.56-4.417-7.4-2-1.645-4.7-2.036-7.2-2.772-8.238-2.443-15.146-9.969-15.4-18.552-.125-4.033,1.136-8.066.564-12.06a13.313,13.313,0,0,0-2.623-6.265c-2.154-2.811-5.4-4.7-7.158-7.831-2.968-5.239-.713-12.044-2.851-17.667-.658-1.723-1.974-3.446-3.814-3.579s-3.414,1.394-5.177,2.075c-3.665,1.425-7.628-.995-10.69-3.477s-6.516-5.3-10.416-4.746c-2.577.36-4.6,2.114-6.978,3.031-1.754.673-5.31,1.276-6.844-.2C916.765,293.638,924.275,285.909,925.63,283.121Z" transform="translate(-236.243 -103.497)" fill="#591d4b"/>
    <path id="Path_121" data-name="Path 121" d="M1005.141,375.6c-1.316-2.584-2.177-5.56-4.417-7.393-2-1.645-4.7-2.044-7.2-2.78-8.231-2.435-15.138-9.961-15.4-18.544-.125-4.033,1.135-8.074.572-12.068a13.391,13.391,0,0,0-2.623-6.226c-2.161-2.811-5.411-4.7-7.158-7.831-2.968-5.231-.713-12.037-2.858-17.667-.65-1.715-1.974-3.438-3.806-3.579s-3.422,1.4-5.177,2.083c-3.665,1.425-7.635-1-10.69-3.477s-6.523-5.3-10.416-4.754c-2.576.368-4.613,2.122-6.978,3.031-1.754.673-5.317,1.284-6.852-.2-3.226-3.132,4.284-10.846,5.631-13.619,1.12-2.287,1.676-4.832,3.023-6.993.071-.117.149-.235.227-.352a12.439,12.439,0,0,0-2.576,2.929c-1.339,2.161-1.9,4.7-3.015,6.993-1.355,2.772-8.865,10.51-5.631,13.619,1.566,1.488,5.09.877,6.844.2,2.349-.916,4.4-2.67,6.978-3.031,3.916-.556,7.361,2.271,10.416,4.746s7.048,4.9,10.7,3.477c1.754-.681,3.289-2.216,5.169-2.075s3.133,1.856,3.814,3.579c2.138,5.623-.117,12.428,2.851,17.667,1.754,3.078,5,5,7.158,7.831a13.313,13.313,0,0,1,2.624,6.265c.572,3.994-.689,8.027-.564,12.06.258,8.614,7.166,16.109,15.4,18.552,2.482.736,5.192,1.128,7.2,2.772,2.248,1.84,3.132,4.816,4.417,7.4a21.665,21.665,0,0,0,23.674,10.917l-1.817-2.052A21.9,21.9,0,0,1,1005.141,375.6Z" transform="translate(-236.197 -105.607)" opacity="0.1"/>
    <path id="Path_122" data-name="Path 122" d="M957.071,355.7c-1.026,1.566-3.963,9.585-6.414,16.587-2.295-.893-4.378-6.586-4.378-6.586l12.232-17.4C959.765,350.023,958.943,352.881,957.071,355.7Z" transform="translate(-242.116 -121.454)" opacity="0.1"/>
    <path id="Path_123" data-name="Path 123" d="M957.671,355.1c-1.026,1.566-3.963,9.585-6.414,16.587-2.295-.885-4.378-6.586-4.378-6.586l12.232-17.393C960.365,349.425,959.543,352.291,957.671,355.1Z" transform="translate(-242.246 -121.326)" fill="#dce7ff"/>
    <path id="Path_124" data-name="Path 124" d="M867.935,452.666l-6.782-21.387a2,2,0,0,1,1.3-2.514h0a2,2,0,0,1,2.506,1.3l6.782,21.364-.674,4.472Z" transform="translate(-223.633 -138.885)" fill="#be8b87"/>
    <path id="Path_125" data-name="Path 125" d="M861.885,429.408h0a2,2,0,0,1,2.514,1.3l6.782,21.364-.509,3.352.493.517.673-4.472L865.018,430.1a2,2,0,0,0-2.506-1.3h0a2,2,0,0,0-1.042.783A2.733,2.733,0,0,1,861.885,429.408Z" transform="translate(-223.723 -138.893)" fill="#fff" opacity="0.1"/>
    <path id="Path_126" data-name="Path 126" d="M822.6,400.346l3.806-1.206-.556,3.665-.118.807-1.112-1.159Z" transform="translate(-178.298 -86.565)" fill="#efc8c4"/>
    <path id="Path_127" data-name="Path 127" d="M872.42,461.929a.784.784,0,0,1,.243-.2.345.345,0,0,1,.368,0,.968.968,0,0,1,.133.211.674.674,0,0,0,.485.321l-.117.783Z" transform="translate(-226.097 -146.041)" fill="#727a9c"/>
    <path id="Path_128" data-name="Path 128" d="M861.13,441.7s13.6-.078,10.4,5.709-8.207,6.484-8.207,6.484Z" transform="translate(-223.649 -141.71)" fill="#ffb0b1"/>
  </g>
</svg>
